<svg xmlns="http://www.w3.org/2000/svg" xmlns:xlink="http://www.w3.org/1999/xlink" width="700" zoomAndPan="magnify" viewBox="0 0 575 374.999991" height="700" preserveAspectRatio="xMidYMid meet" version="1.0"><defs><g/><clipPath id="75b0324dbb"><path d="M 105 241 L 122 241 L 122 262.5 L 105 262.5 Z M 105 241 " clip-rule="nonzero"/></clipPath><clipPath id="ca64cce235"><path d="M 41 112.5 L 47 112.5 L 47 130 L 41 130 Z M 41 112.5 " clip-rule="nonzero"/></clipPath></defs><path fill="#bcbec0" d="M 44.980469 224.738281 C 44.882812 225.070312 44.851562 225.402344 44.886719 225.746094 C 44.917969 226.085938 45.015625 226.410156 45.179688 226.710938 C 45.339844 227.011719 45.554688 227.273438 45.820312 227.492188 C 46.085938 227.710938 46.382812 227.867188 46.710938 227.96875 L 78.480469 237.578125 C 78.785156 237.671875 79.09375 237.707031 79.410156 237.6875 C 79.726562 237.664062 80.027344 237.589844 80.316406 237.457031 C 80.605469 237.324219 80.859375 237.144531 81.082031 236.917969 C 81.304688 236.691406 81.476562 236.433594 81.605469 236.140625 C 81.730469 235.851562 81.804688 235.546875 81.820312 235.230469 C 81.835938 234.910156 81.792969 234.601562 81.695312 234.300781 C 81.597656 234 81.445312 233.722656 81.25 233.476562 C 81.050781 233.230469 80.8125 233.027344 80.539062 232.867188 C 80.410156 232.84375 80.285156 232.808594 80.160156 232.773438 L 48.386719 223.160156 C 48.183594 223.097656 47.984375 223.023438 47.792969 222.929688 C 47.488281 222.890625 47.1875 222.902344 46.890625 222.972656 C 46.589844 223.039062 46.3125 223.15625 46.054688 223.320312 C 45.800781 223.484375 45.578125 223.691406 45.394531 223.933594 C 45.207031 224.179688 45.070312 224.445312 44.980469 224.738281 Z M 44.980469 224.738281 " fill-opacity="1" fill-rule="nonzero"/><path fill="#bcbec0" d="M 41.082031 237.660156 C 40.984375 237.988281 40.953125 238.324219 40.984375 238.664062 C 41.019531 239.007812 41.117188 239.328125 41.28125 239.632812 C 41.441406 239.933594 41.65625 240.195312 41.921875 240.414062 C 42.1875 240.628906 42.484375 240.789062 42.8125 240.886719 L 71.558594 249.585938 L 74.582031 250.511719 C 74.910156 250.609375 75.246094 250.644531 75.585938 250.609375 C 75.925781 250.574219 76.25 250.476562 76.550781 250.316406 C 76.855469 250.152344 77.113281 249.9375 77.332031 249.671875 C 77.546875 249.40625 77.707031 249.109375 77.804688 248.78125 C 77.90625 248.453125 77.9375 248.117188 77.902344 247.777344 C 77.871094 247.433594 77.769531 247.113281 77.609375 246.808594 C 77.449219 246.507812 77.234375 246.246094 76.96875 246.027344 C 76.703125 245.8125 76.40625 245.652344 76.078125 245.554688 L 44.304688 235.941406 C 43.980469 235.84375 43.644531 235.808594 43.304688 235.84375 C 42.964844 235.878906 42.644531 235.972656 42.339844 236.136719 C 42.039062 236.296875 41.777344 236.507812 41.5625 236.773438 C 41.34375 237.035156 41.183594 237.332031 41.082031 237.660156 Z M 41.082031 237.660156 " fill-opacity="1" fill-rule="nonzero"/><path fill="#e6e7e8" d="M 43.902344 239.296875 C 43.816406 239.585938 43.789062 239.878906 43.816406 240.175781 C 43.847656 240.472656 43.933594 240.753906 44.074219 241.019531 C 44.214844 241.285156 44.402344 241.511719 44.632812 241.703125 C 44.867188 241.890625 45.125 242.03125 45.410156 242.117188 L 70.523438 249.714844 L 73.167969 250.511719 C 73.457031 250.609375 73.75 250.644531 74.054688 250.617188 C 74.359375 250.59375 74.644531 250.511719 74.914062 250.371094 C 75.183594 250.226562 75.414062 250.039062 75.609375 249.804688 C 75.804688 249.570312 75.945312 249.308594 76.03125 249.015625 C 76.121094 248.726562 76.148438 248.429688 76.117188 248.125 C 76.085938 247.824219 75.996094 247.539062 75.847656 247.273438 C 75.703125 247.003906 75.507812 246.777344 75.269531 246.589844 C 75.03125 246.398438 74.765625 246.265625 74.472656 246.183594 L 46.726562 237.789062 C 46.4375 237.699219 46.144531 237.671875 45.847656 237.699219 C 45.546875 237.730469 45.265625 237.816406 45 237.957031 C 44.734375 238.097656 44.507812 238.285156 44.316406 238.515625 C 44.128906 238.75 43.988281 239.007812 43.902344 239.296875 Z M 43.902344 239.296875 " fill-opacity="1" fill-rule="nonzero"/><path fill="#bcbec0" d="M 43.03125 231.199219 C 42.933594 231.527344 42.902344 231.863281 42.9375 232.207031 C 42.96875 232.546875 43.066406 232.867188 43.230469 233.171875 C 43.390625 233.472656 43.605469 233.734375 43.871094 233.953125 C 44.136719 234.167969 44.433594 234.328125 44.761719 234.425781 L 76.53125 244.039062 C 76.859375 244.136719 77.195312 244.171875 77.535156 244.136719 C 77.875 244.101562 78.199219 244.003906 78.5 243.84375 C 78.804688 243.679688 79.0625 243.464844 79.28125 243.199219 C 79.496094 242.933594 79.65625 242.636719 79.753906 242.308594 C 79.855469 241.980469 79.886719 241.644531 79.851562 241.304688 C 79.820312 240.960938 79.71875 240.640625 79.558594 240.335938 C 79.398438 240.035156 79.183594 239.773438 78.917969 239.558594 C 78.652344 239.339844 78.355469 239.179688 78.027344 239.082031 L 46.257812 229.46875 C 45.925781 229.371094 45.59375 229.339844 45.253906 229.375 C 44.910156 229.40625 44.589844 229.507812 44.289062 229.667969 C 43.984375 229.832031 43.726562 230.042969 43.507812 230.308594 C 43.289062 230.574219 43.132812 230.871094 43.03125 231.199219 Z M 43.03125 231.199219 " fill-opacity="1" fill-rule="nonzero"/><path fill="#e6e7e8" d="M 49.992188 234.285156 C 49.917969 234.527344 49.894531 234.769531 49.917969 235.019531 C 49.945312 235.265625 50.015625 235.5 50.132812 235.71875 C 50.25 235.941406 50.40625 236.128906 50.597656 236.289062 C 50.792969 236.445312 51.007812 236.5625 51.246094 236.632812 L 74.351562 243.617188 C 74.589844 243.6875 74.835938 243.710938 75.082031 243.683594 C 75.332031 243.660156 75.5625 243.589844 75.785156 243.472656 C 76.003906 243.351562 76.191406 243.195312 76.347656 243.003906 C 76.507812 242.8125 76.621094 242.59375 76.695312 242.355469 C 76.765625 242.117188 76.789062 241.875 76.765625 241.625 C 76.738281 241.378906 76.667969 241.144531 76.550781 240.921875 C 76.433594 240.703125 76.277344 240.515625 76.085938 240.355469 C 75.894531 240.199219 75.679688 240.082031 75.441406 240.011719 L 52.328125 233.027344 C 52.089844 232.957031 51.847656 232.9375 51.601562 232.960938 C 51.351562 232.988281 51.121094 233.058594 50.902344 233.175781 C 50.683594 233.292969 50.492188 233.449219 50.335938 233.640625 C 50.179688 233.832031 50.0625 234.046875 49.992188 234.285156 Z M 49.992188 234.285156 " fill-opacity="1" fill-rule="nonzero"/><path fill="#e6e7e8" d="M 52.117188 227.722656 C 52.042969 227.960938 52.019531 228.203125 52.042969 228.453125 C 52.070312 228.703125 52.140625 228.9375 52.257812 229.15625 C 52.375 229.375 52.53125 229.566406 52.722656 229.722656 C 52.917969 229.882812 53.132812 229.996094 53.371094 230.070312 L 76.476562 237.058594 C 76.714844 237.132812 76.960938 237.15625 77.207031 237.128906 C 77.457031 237.105469 77.6875 237.035156 77.910156 236.914062 C 78.128906 236.796875 78.316406 236.640625 78.472656 236.449219 C 78.632812 236.257812 78.746094 236.039062 78.820312 235.800781 C 78.890625 235.5625 78.914062 235.320312 78.890625 235.070312 C 78.863281 234.824219 78.792969 234.589844 78.675781 234.367188 C 78.558594 234.148438 78.402344 233.960938 78.210938 233.800781 C 78.019531 233.644531 77.804688 233.527344 77.566406 233.457031 L 54.460938 226.464844 C 54.222656 226.394531 53.976562 226.367188 53.730469 226.394531 C 53.480469 226.417969 53.246094 226.488281 53.027344 226.609375 C 52.808594 226.726562 52.621094 226.882812 52.460938 227.074219 C 52.304688 227.265625 52.1875 227.484375 52.117188 227.722656 Z M 52.117188 227.722656 " fill-opacity="1" fill-rule="nonzero"/><path fill="#bcbec0" d="M 80.429688 231.113281 C 80.636719 231.171875 80.835938 231.25 81.027344 231.34375 C 81.351562 231.382812 81.667969 231.363281 81.980469 231.285156 C 82.296875 231.207031 82.585938 231.070312 82.847656 230.882812 C 83.113281 230.695312 83.332031 230.46875 83.511719 230.195312 C 83.6875 229.925781 83.8125 229.632812 83.878906 229.3125 C 83.945312 228.996094 83.953125 228.679688 83.902344 228.359375 C 83.847656 228.039062 83.742188 227.738281 83.578125 227.460938 C 83.410156 227.179688 83.203125 226.941406 82.949219 226.738281 C 82.695312 226.539062 82.410156 226.390625 82.101562 226.296875 L 50.332031 216.6875 C 50.027344 216.597656 49.71875 216.5625 49.402344 216.585938 C 49.089844 216.605469 48.789062 216.683594 48.5 216.816406 C 48.214844 216.953125 47.960938 217.132812 47.738281 217.355469 C 47.519531 217.582031 47.34375 217.84375 47.21875 218.132812 C 47.09375 218.421875 47.023438 218.726562 47.007812 219.042969 C 46.992188 219.355469 47.03125 219.664062 47.128906 219.964844 C 47.226562 220.269531 47.375 220.542969 47.574219 220.789062 C 47.769531 221.035156 48.007812 221.238281 48.277344 221.398438 C 48.40625 221.421875 48.535156 221.453125 48.660156 221.492188 Z M 80.429688 231.113281 " fill-opacity="1" fill-rule="nonzero"/><path fill="#e6e7e8" d="M 56.953125 251.507812 C 63.457031 253.476562 68.679688 252.753906 70.210938 250.8125 L 46.285156 243.582031 C 46.492188 246.042969 50.4375 249.539062 56.953125 251.507812 Z M 56.953125 251.507812 " fill-opacity="1" fill-rule="nonzero"/><path fill="#bcbec0" d="M 68.242188 252.074219 C 69.125 251.757812 69.796875 251.332031 70.203125 250.8125 L 46.285156 243.582031 C 46.441406 245.433594 48.695312 247.851562 52.550781 249.78125 C 52.550781 249.78125 47.683594 244.578125 55.984375 247.105469 C 55.984375 247.105469 69.839844 250.886719 68.242188 252.074219 Z M 68.242188 252.074219 " fill-opacity="1" fill-rule="nonzero"/><path fill="#8c2222" d="M 80.539062 232.867188 C 80.8125 233.027344 81.046875 233.230469 81.246094 233.476562 C 81.441406 233.722656 81.589844 233.996094 81.6875 234.300781 C 81.785156 234.601562 81.828125 234.910156 81.8125 235.222656 C 81.796875 235.539062 81.726562 235.84375 81.597656 236.132812 C 81.472656 236.421875 81.300781 236.683594 81.078125 236.90625 C 80.859375 237.132812 80.605469 237.3125 80.316406 237.449219 C 80.03125 237.582031 79.730469 237.660156 79.414062 237.679688 C 79.097656 237.703125 78.789062 237.667969 78.488281 237.578125 C 79.335938 237.839844 80.03125 238.324219 80.570312 239.03125 C 80.871094 238.929688 81.160156 238.792969 81.433594 238.621094 C 81.707031 238.453125 81.953125 238.253906 82.179688 238.023438 C 82.40625 237.796875 82.605469 237.546875 82.773438 237.273438 C 82.941406 237 83.074219 236.710938 83.175781 236.40625 C 83.277344 236.101562 83.339844 235.789062 83.371094 235.46875 C 83.398438 235.148438 83.390625 234.828125 83.34375 234.511719 C 83.296875 234.191406 83.214844 233.882812 83.097656 233.585938 C 82.980469 233.285156 82.832031 233.003906 82.648438 232.738281 C 81.957031 232.96875 81.253906 233.011719 80.539062 232.867188 Z M 80.539062 232.867188 " fill-opacity="1" fill-rule="nonzero"/><path fill="#8c2222" d="M 46.710938 227.96875 C 46.398438 227.875 46.117188 227.726562 45.863281 227.527344 C 45.605469 227.324219 45.398438 227.085938 45.234375 226.804688 C 45.070312 226.527344 44.960938 226.226562 44.90625 225.90625 C 44.855469 225.585938 44.863281 225.265625 44.929688 224.949219 C 45 224.632812 45.121094 224.339844 45.300781 224.066406 C 45.476562 223.796875 45.699219 223.566406 45.964844 223.378906 C 46.226562 223.191406 46.515625 223.058594 46.832031 222.980469 C 47.144531 222.902344 47.464844 222.882812 47.785156 222.921875 C 47.121094 222.605469 46.582031 222.140625 46.164062 221.53125 C 45.847656 221.636719 45.550781 221.773438 45.265625 221.949219 C 44.984375 222.125 44.726562 222.328125 44.492188 222.566406 C 44.257812 222.800781 44.058594 223.0625 43.886719 223.347656 C 43.714844 223.632812 43.582031 223.9375 43.484375 224.253906 C 43.386719 224.570312 43.328125 224.898438 43.308594 225.230469 C 43.285156 225.5625 43.308594 225.890625 43.367188 226.21875 C 43.425781 226.546875 43.523438 226.863281 43.65625 227.164062 C 43.792969 227.46875 43.960938 227.753906 44.164062 228.015625 C 45.007812 227.722656 45.855469 227.707031 46.710938 227.96875 Z M 46.710938 227.96875 " fill-opacity="1" fill-rule="nonzero"/><path fill="#8c2222" d="M 80.605469 231.269531 C 80.746094 231.308594 80.886719 231.339844 81.027344 231.355469 C 80.835938 231.265625 80.636719 231.1875 80.429688 231.125 L 48.660156 221.515625 C 48.535156 221.476562 48.40625 221.445312 48.277344 221.417969 C 48.453125 221.523438 48.640625 221.605469 48.835938 221.664062 Z M 80.605469 231.269531 " fill-opacity="1" fill-rule="nonzero"/><path fill="#8c2222" d="M 82.554688 224.808594 L 50.785156 215.199219 C 50.371094 215.070312 49.949219 215.011719 49.519531 215.015625 C 49.085938 215.023438 48.667969 215.09375 48.257812 215.230469 C 47.847656 215.367188 47.46875 215.5625 47.121094 215.816406 C 46.773438 216.070312 46.472656 216.371094 46.21875 216.722656 C 45.964844 217.070312 45.769531 217.449219 45.632812 217.859375 C 45.496094 218.269531 45.425781 218.6875 45.421875 219.121094 C 45.414062 219.554688 45.476562 219.976562 45.601562 220.386719 C 45.726562 220.800781 45.914062 221.183594 46.160156 221.539062 C 46.851562 221.308594 47.554688 221.269531 48.269531 221.414062 C 47.996094 221.253906 47.761719 221.046875 47.5625 220.800781 C 47.367188 220.554688 47.21875 220.28125 47.121094 219.980469 C 47.023438 219.679688 46.980469 219.371094 46.996094 219.054688 C 47.011719 218.738281 47.082031 218.4375 47.210938 218.144531 C 47.335938 217.855469 47.507812 217.597656 47.730469 217.371094 C 47.949219 217.144531 48.203125 216.964844 48.492188 216.832031 C 48.777344 216.699219 49.078125 216.621094 49.394531 216.597656 C 49.710938 216.574219 50.019531 216.609375 50.320312 216.699219 L 82.09375 226.3125 C 82.402344 226.40625 82.683594 226.554688 82.9375 226.753906 C 83.191406 226.953125 83.402344 227.195312 83.566406 227.472656 C 83.730469 227.753906 83.839844 228.050781 83.890625 228.371094 C 83.945312 228.691406 83.9375 229.011719 83.867188 229.328125 C 83.800781 229.644531 83.679688 229.9375 83.5 230.210938 C 83.324219 230.480469 83.101562 230.710938 82.839844 230.898438 C 82.574219 231.085938 82.285156 231.21875 81.972656 231.300781 C 81.660156 231.378906 81.339844 231.398438 81.019531 231.355469 C 81.683594 231.675781 82.222656 232.140625 82.636719 232.746094 C 83.058594 232.609375 83.445312 232.410156 83.804688 232.148438 C 84.160156 231.886719 84.464844 231.578125 84.722656 231.21875 C 84.980469 230.859375 85.175781 230.464844 85.308594 230.042969 C 85.441406 229.621094 85.503906 229.191406 85.5 228.75 C 85.496094 228.304688 85.421875 227.875 85.28125 227.457031 C 85.136719 227.039062 84.933594 226.652344 84.667969 226.296875 C 84.402344 225.945312 84.089844 225.640625 83.726562 225.386719 C 83.363281 225.132812 82.972656 224.945312 82.546875 224.816406 Z M 82.554688 224.808594 " fill-opacity="1" fill-rule="nonzero"/><path fill="#8c2222" d="M 80.152344 232.773438 C 80.277344 232.808594 80.402344 232.84375 80.53125 232.867188 C 80.355469 232.761719 80.171875 232.679688 79.976562 232.621094 L 48.207031 223.007812 C 48.066406 222.96875 47.925781 222.9375 47.785156 222.917969 C 47.976562 223.011719 48.175781 223.089844 48.382812 223.152344 Z M 80.152344 232.773438 " fill-opacity="1" fill-rule="nonzero"/><path fill="#8c2222" d="M 81.027344 231.355469 C 80.886719 231.339844 80.746094 231.308594 80.605469 231.269531 L 48.835938 221.65625 C 48.640625 221.597656 48.453125 221.515625 48.277344 221.414062 C 47.5625 221.269531 46.859375 221.308594 46.167969 221.539062 C 46.582031 222.148438 47.125 222.609375 47.785156 222.929688 C 47.929688 222.949219 48.070312 222.976562 48.207031 223.015625 L 79.980469 232.628906 C 80.175781 232.6875 80.359375 232.769531 80.535156 232.875 C 81.25 233.019531 81.953125 232.976562 82.648438 232.746094 C 82.230469 232.140625 81.691406 231.675781 81.027344 231.355469 Z M 81.027344 231.355469 " fill-opacity="1" fill-rule="nonzero"/><path fill="#8c2222" d="M 44.761719 234.425781 C 44.429688 234.328125 44.136719 234.171875 43.871094 233.953125 C 43.605469 233.734375 43.390625 233.476562 43.230469 233.171875 C 43.066406 232.871094 42.96875 232.546875 42.933594 232.207031 C 42.902344 231.863281 42.933594 231.527344 43.03125 231.199219 C 43.132812 230.871094 43.289062 230.574219 43.507812 230.308594 C 43.722656 230.042969 43.984375 229.828125 44.285156 229.667969 C 44.589844 229.503906 44.910156 229.40625 45.25 229.371094 C 45.59375 229.339844 45.925781 229.371094 46.257812 229.46875 C 45.40625 229.210938 44.710938 228.726562 44.175781 228.019531 C 43.863281 228.125 43.566406 228.265625 43.289062 228.441406 C 43.011719 228.617188 42.757812 228.824219 42.527344 229.0625 C 42.296875 229.300781 42.097656 229.558594 41.933594 229.84375 C 41.765625 230.128906 41.632812 230.429688 41.539062 230.746094 C 41.445312 231.0625 41.386719 231.382812 41.367188 231.714844 C 41.351562 232.042969 41.371094 232.371094 41.429688 232.695312 C 41.488281 233.019531 41.585938 233.332031 41.722656 233.632812 C 41.855469 233.9375 42.023438 234.21875 42.226562 234.480469 C 43.066406 234.1875 43.910156 234.171875 44.761719 234.425781 Z M 44.761719 234.425781 " fill-opacity="1" fill-rule="nonzero"/><path fill="#8c2222" d="M 78.027344 239.082031 C 78.355469 239.179688 78.652344 239.339844 78.917969 239.554688 C 79.183594 239.773438 79.398438 240.035156 79.5625 240.335938 C 79.722656 240.640625 79.820312 240.960938 79.855469 241.304688 C 79.890625 241.644531 79.859375 241.980469 79.757812 242.3125 C 79.660156 242.640625 79.5 242.9375 79.28125 243.203125 C 79.066406 243.46875 78.804688 243.683594 78.503906 243.84375 C 78.199219 244.007812 77.878906 244.105469 77.535156 244.136719 C 77.195312 244.171875 76.859375 244.140625 76.53125 244.039062 C 77.378906 244.300781 78.074219 244.785156 78.613281 245.492188 C 78.925781 245.386719 79.21875 245.246094 79.5 245.066406 C 79.777344 244.890625 80.03125 244.683594 80.261719 244.445312 C 80.488281 244.210938 80.6875 243.949219 80.855469 243.664062 C 81.023438 243.378906 81.152344 243.078125 81.25 242.761719 C 81.34375 242.449219 81.402344 242.125 81.417969 241.796875 C 81.4375 241.464844 81.417969 241.136719 81.355469 240.8125 C 81.296875 240.488281 81.199219 240.175781 81.066406 239.875 C 80.929688 239.574219 80.761719 239.292969 80.5625 239.03125 C 79.722656 239.320312 78.878906 239.335938 78.027344 239.082031 Z M 78.027344 239.082031 " fill-opacity="1" fill-rule="nonzero"/><path fill="#8c2222" d="M 78.480469 237.578125 L 46.710938 227.96875 C 45.855469 227.707031 45.007812 227.726562 44.164062 228.019531 C 44.703125 228.726562 45.398438 229.210938 46.246094 229.46875 L 78.019531 239.082031 C 78.871094 239.339844 79.71875 239.324219 80.5625 239.03125 C 80.023438 238.324219 79.332031 237.839844 78.480469 237.578125 Z M 78.480469 237.578125 " fill-opacity="1" fill-rule="nonzero"/><path fill="#8c2222" d="M 76.078125 245.542969 C 76.40625 245.640625 76.703125 245.800781 76.96875 246.015625 C 77.234375 246.234375 77.449219 246.496094 77.609375 246.796875 C 77.769531 247.101562 77.871094 247.421875 77.902344 247.765625 C 77.9375 248.105469 77.90625 248.441406 77.804688 248.769531 C 77.707031 249.097656 77.546875 249.394531 77.332031 249.660156 C 77.113281 249.925781 76.855469 250.140625 76.550781 250.304688 C 76.25 250.464844 75.925781 250.5625 75.585938 250.597656 C 75.246094 250.632812 74.910156 250.597656 74.582031 250.5 L 71.558594 249.574219 C 71.765625 249.636719 71.921875 249.761719 72.023438 249.953125 C 72.125 250.144531 72.144531 250.34375 72.082031 250.550781 C 72.003906 250.804688 71.898438 251.046875 71.769531 251.277344 L 74.128906 251.992188 C 74.550781 252.121094 74.980469 252.179688 75.417969 252.171875 C 75.859375 252.160156 76.285156 252.085938 76.703125 251.9375 C 77.117188 251.792969 77.5 251.589844 77.847656 251.320312 C 78.199219 251.054688 78.5 250.738281 78.75 250.378906 C 79 250.015625 79.1875 249.625 79.3125 249.199219 C 79.4375 248.777344 79.492188 248.347656 79.480469 247.90625 C 79.472656 247.46875 79.390625 247.039062 79.246094 246.625 C 79.097656 246.210938 78.890625 245.828125 78.621094 245.480469 C 77.78125 245.773438 76.933594 245.796875 76.078125 245.542969 Z M 76.078125 245.542969 " fill-opacity="1" fill-rule="nonzero"/><path fill="#8c2222" d="M 45.835938 241.804688 C 46.042969 241.867188 46.199219 241.992188 46.300781 242.183594 C 46.402344 242.375 46.421875 242.574219 46.359375 242.78125 C 46.285156 243.042969 46.261719 243.308594 46.285156 243.582031 L 70.203125 250.8125 C 70.371094 250.605469 70.496094 250.375 70.582031 250.121094 C 70.644531 249.910156 70.769531 249.757812 70.960938 249.652344 C 71.152344 249.550781 71.351562 249.53125 71.558594 249.59375 L 42.8125 240.886719 C 42.484375 240.789062 42.1875 240.628906 41.921875 240.414062 C 41.65625 240.195312 41.441406 239.9375 41.28125 239.632812 C 41.121094 239.332031 41.019531 239.007812 40.988281 238.667969 C 40.953125 238.324219 40.984375 237.988281 41.085938 237.660156 C 41.183594 237.332031 41.339844 237.035156 41.558594 236.769531 C 41.777344 236.503906 42.035156 236.289062 42.335938 236.128906 C 42.640625 235.964844 42.960938 235.867188 43.300781 235.832031 C 43.644531 235.796875 43.976562 235.832031 44.304688 235.929688 C 43.457031 235.671875 42.761719 235.1875 42.226562 234.480469 C 41.808594 234.621094 41.425781 234.824219 41.074219 235.085938 C 40.722656 235.351562 40.417969 235.664062 40.167969 236.023438 C 39.914062 236.382812 39.722656 236.773438 39.59375 237.195312 C 39.464844 237.617188 39.40625 238.046875 39.414062 238.488281 C 39.417969 238.925781 39.496094 239.355469 39.640625 239.769531 C 39.78125 240.1875 39.988281 240.570312 40.253906 240.921875 C 40.519531 241.273438 40.832031 241.574219 41.191406 241.824219 C 41.550781 242.078125 41.941406 242.265625 42.363281 242.394531 L 44.726562 243.105469 C 44.746094 242.839844 44.792969 242.582031 44.867188 242.328125 C 44.929688 242.121094 45.054688 241.96875 45.242188 241.867188 C 45.433594 241.761719 45.632812 241.742188 45.835938 241.804688 Z M 45.835938 241.804688 " fill-opacity="1" fill-rule="nonzero"/><path fill="#8c2222" d="M 76.53125 244.039062 L 44.761719 234.425781 C 43.90625 234.167969 43.058594 234.1875 42.214844 234.480469 C 42.753906 235.1875 43.445312 235.671875 44.296875 235.929688 L 76.070312 245.542969 C 76.921875 245.800781 77.769531 245.78125 78.613281 245.492188 C 78.074219 244.785156 77.378906 244.300781 76.53125 244.039062 Z M 76.53125 244.039062 " fill-opacity="1" fill-rule="nonzero"/><path fill="#8c2222" d="M 56.953125 251.507812 C 50.449219 249.539062 46.5 246.042969 46.296875 243.582031 L 44.730469 243.105469 C 44.480469 246.648438 49.394531 250.863281 56.5 253.011719 C 63.605469 255.160156 70.027344 254.378906 71.777344 251.289062 L 70.210938 250.824219 C 68.667969 252.753906 63.449219 253.476562 56.953125 251.507812 Z M 56.953125 251.507812 " fill-opacity="1" fill-rule="nonzero"/><path fill="#8c2222" d="M 71.558594 249.585938 C 71.351562 249.523438 71.152344 249.542969 70.960938 249.644531 C 70.769531 249.746094 70.644531 249.902344 70.582031 250.109375 C 70.496094 250.367188 70.371094 250.597656 70.203125 250.804688 L 71.769531 251.269531 C 71.898438 251.039062 72.003906 250.796875 72.082031 250.542969 C 72.136719 250.339844 72.117188 250.144531 72.015625 249.957031 C 71.910156 249.773438 71.761719 249.648438 71.558594 249.585938 Z M 71.558594 249.585938 " fill-opacity="1" fill-rule="nonzero"/><path fill="#8c2222" d="M 46.359375 242.78125 C 46.421875 242.574219 46.40625 242.375 46.304688 242.183594 C 46.203125 241.992188 46.046875 241.863281 45.839844 241.800781 C 45.632812 241.734375 45.433594 241.753906 45.242188 241.855469 C 45.050781 241.957031 44.921875 242.113281 44.859375 242.320312 C 44.785156 242.574219 44.738281 242.832031 44.71875 243.097656 L 46.285156 243.570312 C 46.261719 243.304688 46.285156 243.039062 46.359375 242.78125 Z M 46.359375 242.78125 " fill-opacity="1" fill-rule="nonzero"/><path fill="#ffffff" d="M 59.855469 249.953125 C 60.289062 250.070312 60.699219 250.203125 61.085938 250.351562 C 61.472656 250.5 61.808594 250.65625 62.09375 250.816406 C 62.378906 250.980469 62.589844 251.132812 62.726562 251.285156 C 62.863281 251.433594 62.917969 251.5625 62.886719 251.675781 C 62.855469 251.789062 62.746094 251.878906 62.550781 251.941406 C 62.359375 252 62.097656 252.03125 61.773438 252.03125 C 61.445312 252.027344 61.078125 251.996094 60.667969 251.933594 C 60.253906 251.871094 59.832031 251.785156 59.402344 251.667969 C 58.96875 251.554688 58.558594 251.421875 58.171875 251.273438 C 57.785156 251.125 57.449219 250.96875 57.164062 250.804688 C 56.878906 250.644531 56.667969 250.488281 56.53125 250.339844 C 56.394531 250.191406 56.339844 250.058594 56.371094 249.945312 C 56.398438 249.832031 56.511719 249.746094 56.703125 249.683594 C 56.898438 249.625 57.15625 249.59375 57.484375 249.59375 C 57.8125 249.59375 58.179688 249.625 58.589844 249.6875 C 59.003906 249.75 59.421875 249.839844 59.855469 249.953125 Z M 59.855469 249.953125 " fill-opacity="1" fill-rule="nonzero"/><path fill="#ffccd2" d="M 131.972656 204.535156 C 131.925781 204.464844 131.90625 204.386719 131.921875 204.300781 C 131.9375 204.214844 131.980469 204.148438 132.050781 204.097656 L 132.089844 204.066406 C 131.996094 202.464844 131.625 200.929688 130.972656 199.464844 C 129.292969 195.59375 125.867188 192.089844 121.570312 189.84375 C 117.820312 187.882812 113.6875 187.011719 109.929688 187.382812 C 109.820312 187.394531 109.734375 187.363281 109.664062 187.28125 C 109.59375 187.199219 109.566406 187.105469 109.589844 187.003906 C 110.90625 181.242188 107.597656 174.75 101.546875 171.210938 C 96.953125 168.523438 91.617188 167.996094 87.277344 169.796875 C 87.183594 169.835938 87.089844 169.832031 87 169.78125 C 86.910156 169.726562 86.859375 169.648438 86.847656 169.546875 C 86.117188 163.546875 79.492188 158.796875 71.433594 158.496094 C 63.851562 158.210938 57.136719 162.007812 55.480469 167.511719 C 55.453125 167.59375 55.402344 167.65625 55.324219 167.699219 C 55.25 167.734375 55.171875 167.742188 55.09375 167.71875 C 53.410156 167.1875 51.6875 166.890625 49.921875 166.828125 C 40.675781 166.488281 32.910156 172.617188 32.621094 180.492188 C 32.558594 182.253906 32.859375 183.953125 33.523438 185.585938 C 33.566406 185.695312 33.554688 185.796875 33.480469 185.894531 C 33.40625 185.988281 33.3125 186.027344 33.195312 186.015625 C 32.84375 185.972656 32.480469 185.945312 32.117188 185.933594 C 31.605469 185.914062 31.09375 185.925781 30.582031 185.964844 C 30.070312 186.007812 29.5625 186.078125 29.058594 186.179688 C 28.554688 186.277344 28.058594 186.40625 27.570312 186.566406 C 27.082031 186.722656 26.605469 186.90625 26.136719 187.121094 C 25.671875 187.332031 25.21875 187.574219 24.777344 187.839844 C 24.339844 188.105469 23.917969 188.394531 23.511719 188.710938 C 23.105469 189.023438 22.71875 189.363281 22.351562 189.722656 C 21.984375 190.082031 21.640625 190.460938 21.320312 190.863281 C 20.996094 191.261719 20.699219 191.679688 20.425781 192.113281 C 20.148438 192.546875 19.902344 192.996094 19.679688 193.460938 C 19.457031 193.921875 19.261719 194.398438 19.09375 194.882812 C 18.929688 195.367188 18.789062 195.863281 18.679688 196.363281 C 18.570312 196.867188 18.488281 197.375 18.4375 197.886719 C 18.386719 198.394531 18.363281 198.910156 18.371094 199.421875 C 18.382812 199.9375 18.417969 200.449219 18.484375 200.957031 C 18.554688 201.46875 18.648438 201.972656 18.777344 202.46875 L 18.777344 202.492188 C 19.039062 203.511719 19.414062 204.484375 19.90625 205.414062 C 20.398438 206.339844 20.988281 207.199219 21.683594 207.988281 C 22.378906 208.777344 23.15625 209.472656 24.015625 210.074219 C 24.875 210.679688 25.792969 211.175781 26.765625 211.558594 C 26.882812 211.605469 26.949219 211.6875 26.964844 211.808594 C 27.128906 212.96875 27.441406 214.082031 27.898438 215.15625 C 28.355469 216.234375 28.945312 217.230469 29.667969 218.148438 C 30.390625 219.066406 31.21875 219.875 32.152344 220.574219 C 33.085938 221.277344 34.097656 221.84375 35.179688 222.273438 C 36.265625 222.707031 37.386719 222.992188 38.546875 223.128906 C 39.707031 223.265625 40.863281 223.246094 42.019531 223.078125 C 43.171875 222.90625 44.285156 222.589844 45.355469 222.125 C 46.429688 221.664062 47.421875 221.066406 48.335938 220.339844 C 48.425781 220.269531 48.527344 220.253906 48.636719 220.292969 C 48.75 220.332031 48.816406 220.40625 48.835938 220.523438 C 50.253906 227.285156 56.304688 232.195312 63.550781 232.460938 C 68.339844 232.632812 72.875 230.746094 75.972656 227.269531 C 76.035156 227.203125 76.109375 227.164062 76.203125 227.164062 L 76.253906 227.164062 C 76.363281 227.183594 76.441406 227.246094 76.484375 227.351562 C 78.796875 232.738281 84.238281 236.367188 90.347656 236.589844 C 96.503906 236.820312 102.207031 233.5625 104.894531 228.300781 C 104.980469 228.136719 105.109375 228.085938 105.28125 228.148438 C 106.925781 228.757812 108.621094 229.09375 110.371094 229.15625 C 112.414062 229.246094 114.398438 228.949219 116.328125 228.269531 C 118.257812 227.585938 119.992188 226.570312 121.527344 225.222656 C 123.027344 223.921875 124.203125 222.378906 125.058594 220.59375 C 125.917969 218.804688 126.382812 216.917969 126.460938 214.9375 C 126.472656 214.550781 126.472656 214.164062 126.460938 213.78125 C 126.453125 213.648438 126.511719 213.550781 126.625 213.488281 C 128.535156 212.523438 129.992188 211.09375 130.992188 209.199219 C 131.734375 207.769531 132.105469 206.25 132.105469 204.636719 C 132.050781 204.617188 132.007812 204.582031 131.972656 204.535156 Z M 131.972656 204.535156 " fill-opacity="1" fill-rule="nonzero"/><path fill="#ffccd2" d="M 124.914062 180.402344 C 120.796875 178.371094 116.25 177.46875 112.117188 177.855469 C 112.007812 177.867188 111.917969 177.832031 111.851562 177.75 C 111.777344 177.667969 111.753906 177.574219 111.78125 177.46875 C 113.238281 171.464844 109.617188 164.703125 102.980469 161.03125 C 97.933594 158.234375 92.0625 157.699219 87.285156 159.589844 C 87.1875 159.628906 87.09375 159.621094 87.007812 159.570312 C 86.917969 159.515625 86.867188 159.4375 86.855469 159.335938 C 86.070312 153.085938 78.796875 148.140625 69.9375 147.847656 C 61.59375 147.574219 54.199219 151.550781 52.363281 157.289062 C 52.339844 157.371094 52.289062 157.433594 52.210938 157.472656 C 52.136719 157.511719 52.054688 157.519531 51.972656 157.496094 C 50.121094 156.945312 48.226562 156.640625 46.289062 156.582031 C 36.117188 156.246094 27.5625 162.664062 27.230469 170.878906 C 27.152344 172.730469 27.480469 174.503906 28.207031 176.207031 C 28.230469 176.257812 28.238281 176.308594 28.230469 176.367188 C 28.222656 176.421875 28.203125 176.46875 28.171875 176.515625 C 28.136719 176.558594 28.09375 176.59375 28.042969 176.617188 C 27.992188 176.636719 27.941406 176.644531 27.882812 176.640625 C 27.496094 176.597656 27.097656 176.570312 26.699219 176.558594 C 18.664062 176.296875 11.867188 182.289062 11.554688 189.917969 C 11.5 191.253906 11.640625 192.566406 11.984375 193.855469 C 12.449219 195.53125 13.199219 197.0625 14.234375 198.457031 C 15.273438 199.847656 16.527344 201.007812 17.996094 201.929688 C 17.894531 201.417969 17.820312 200.898438 17.777344 200.378906 C 17.734375 199.855469 17.71875 199.335938 17.734375 198.8125 C 17.746094 198.289062 17.792969 197.765625 17.863281 197.25 C 17.9375 196.730469 18.042969 196.21875 18.171875 195.710938 C 18.304688 195.207031 18.464844 194.707031 18.652344 194.21875 C 18.839844 193.730469 19.050781 193.253906 19.292969 192.789062 C 19.535156 192.328125 19.800781 191.878906 20.09375 191.441406 C 20.386719 191.007812 20.703125 190.59375 21.039062 190.195312 C 21.378906 189.796875 21.738281 189.417969 22.121094 189.058594 C 22.503906 188.703125 22.902344 188.367188 23.324219 188.054688 C 23.742188 187.742188 24.175781 187.457031 24.628906 187.191406 C 25.082031 186.929688 25.546875 186.691406 26.023438 186.484375 C 26.503906 186.273438 26.992188 186.089844 27.492188 185.933594 C 27.992188 185.78125 28.496094 185.652344 29.011719 185.554688 C 29.523438 185.457031 30.042969 185.390625 30.5625 185.351562 C 31.082031 185.3125 31.605469 185.300781 32.128906 185.320312 C 32.332031 185.320312 32.539062 185.339844 32.742188 185.355469 C 32.171875 183.777344 31.917969 182.148438 31.980469 180.472656 C 32.28125 172.25 40.339844 165.851562 49.933594 166.199219 C 51.648438 166.257812 53.328125 166.53125 54.972656 167.023438 C 56.859375 161.414062 63.726562 157.582031 71.457031 157.863281 C 79.640625 158.167969 86.410156 162.957031 87.414062 169.066406 C 91.863281 167.371094 97.230469 167.957031 101.863281 170.667969 C 108.003906 174.253906 111.417969 180.804688 110.292969 186.71875 C 114.050781 186.441406 118.152344 187.34375 121.851562 189.28125 C 126.277344 191.597656 129.808594 195.210938 131.542969 199.210938 C 132.164062 200.617188 132.542969 202.082031 132.679688 203.609375 C 133.726562 202.769531 134.574219 201.757812 135.226562 200.585938 C 136.855469 197.621094 136.84375 194.011719 135.226562 190.417969 C 133.390625 186.386719 129.632812 182.738281 124.914062 180.402344 Z M 124.914062 180.402344 " fill-opacity="1" fill-rule="nonzero"/><path fill="#231f20" d="M 125.191406 179.84375 C 121.109375 177.828125 116.617188 176.898438 112.484375 177.207031 C 113.746094 171.035156 110.015625 164.21875 103.28125 160.492188 C 98.195312 157.679688 92.304688 157.085938 87.421875 158.871094 C 86.351562 152.496094 78.9375 147.527344 69.960938 147.226562 C 61.476562 146.949219 53.933594 150.964844 51.863281 156.816406 C 50.046875 156.304688 48.199219 156.019531 46.3125 155.960938 C 35.792969 155.621094 26.953125 162.300781 26.605469 170.859375 C 26.535156 172.617188 26.8125 174.3125 27.4375 175.953125 C 27.207031 175.9375 26.960938 175.925781 26.722656 175.917969 C 18.335938 175.660156 11.253906 181.925781 10.9375 189.898438 C 10.878906 191.292969 11.027344 192.664062 11.386719 194.015625 C 11.902344 195.871094 12.75 197.554688 13.929688 199.074219 C 15.109375 200.59375 16.535156 201.828125 18.203125 202.78125 C 18.480469 203.820312 18.871094 204.8125 19.378906 205.761719 C 19.882812 206.710938 20.492188 207.589844 21.199219 208.394531 C 21.910156 209.203125 22.699219 209.917969 23.574219 210.542969 C 24.449219 211.167969 25.382812 211.683594 26.375 212.09375 C 26.464844 212.679688 26.59375 213.261719 26.757812 213.832031 C 26.925781 214.40625 27.125 214.964844 27.363281 215.507812 C 27.601562 216.054688 27.871094 216.585938 28.179688 217.09375 C 28.484375 217.605469 28.820312 218.09375 29.1875 218.5625 C 29.554688 219.03125 29.953125 219.472656 30.375 219.890625 C 30.800781 220.308594 31.25 220.695312 31.722656 221.054688 C 32.199219 221.414062 32.695312 221.738281 33.210938 222.035156 C 33.726562 222.332031 34.261719 222.589844 34.808594 222.816406 C 35.359375 223.046875 35.921875 223.234375 36.496094 223.390625 C 37.070312 223.542969 37.652344 223.660156 38.242188 223.742188 C 38.832031 223.820312 39.421875 223.863281 40.015625 223.867188 C 40.613281 223.867188 41.203125 223.835938 41.792969 223.761719 C 42.382812 223.6875 42.96875 223.578125 43.542969 223.429688 C 44.121094 223.285156 44.683594 223.097656 45.234375 222.878906 C 45.789062 222.660156 46.324219 222.402344 46.84375 222.113281 C 47.363281 221.824219 47.863281 221.503906 48.339844 221.152344 C 50 227.945312 56.175781 232.832031 63.539062 233.101562 C 64.707031 233.15625 65.867188 233.082031 67.019531 232.886719 C 68.171875 232.691406 69.289062 232.375 70.375 231.941406 C 71.460938 231.507812 72.488281 230.960938 73.457031 230.304688 C 74.425781 229.652344 75.316406 228.902344 76.125 228.054688 C 78.632812 233.425781 84.160156 237.007812 90.34375 237.238281 C 90.550781 237.238281 90.757812 237.238281 90.964844 237.238281 C 97.023438 237.238281 102.589844 233.996094 105.34375 228.839844 C 106.96875 229.417969 108.644531 229.738281 110.367188 229.804688 C 112.492188 229.898438 114.554688 229.589844 116.558594 228.882812 C 118.566406 228.175781 120.367188 227.121094 121.964844 225.71875 C 123.523438 224.359375 124.753906 222.75 125.648438 220.886719 C 126.539062 219.019531 127.027344 217.050781 127.105469 214.984375 C 127.121094 214.648438 127.121094 214.308594 127.105469 213.976562 C 129.042969 212.941406 130.53125 211.457031 131.566406 209.515625 C 132.390625 207.902344 132.777344 206.191406 132.722656 204.378906 C 133.992188 203.433594 135.007812 202.269531 135.777344 200.886719 C 137.507812 197.746094 137.511719 193.941406 135.789062 190.15625 C 133.898438 185.996094 130.035156 182.238281 125.191406 179.84375 Z M 131.003906 209.222656 C 130.003906 211.121094 128.546875 212.550781 126.636719 213.515625 C 126.519531 213.578125 126.464844 213.675781 126.46875 213.804688 C 126.484375 214.1875 126.484375 214.578125 126.46875 214.964844 C 126.390625 216.945312 125.925781 218.828125 125.070312 220.617188 C 124.210938 222.40625 123.035156 223.949219 121.539062 225.246094 C 120 226.597656 118.265625 227.613281 116.339844 228.292969 C 114.410156 228.972656 112.421875 229.269531 110.378906 229.183594 C 108.628906 229.121094 106.933594 228.785156 105.292969 228.171875 C 105.117188 228.109375 104.988281 228.160156 104.902344 228.328125 C 102.214844 233.585938 96.511719 236.84375 90.355469 236.617188 C 84.246094 236.382812 78.804688 232.765625 76.496094 227.378906 C 76.449219 227.273438 76.375 227.210938 76.261719 227.191406 L 76.210938 227.191406 C 76.121094 227.191406 76.042969 227.226562 75.980469 227.296875 C 72.882812 230.769531 68.351562 232.660156 63.5625 232.488281 C 56.316406 232.222656 50.261719 227.3125 48.847656 220.546875 C 48.824219 220.433594 48.757812 220.355469 48.648438 220.316406 C 48.535156 220.277344 48.4375 220.292969 48.34375 220.367188 C 47.429688 221.09375 46.4375 221.6875 45.367188 222.152344 C 44.292969 222.617188 43.183594 222.933594 42.027344 223.101562 C 40.871094 223.273438 39.714844 223.289062 38.554688 223.152344 C 37.398438 223.015625 36.273438 222.734375 35.191406 222.300781 C 34.105469 221.867188 33.097656 221.300781 32.164062 220.601562 C 31.226562 219.902344 30.398438 219.09375 29.675781 218.171875 C 28.957031 217.253906 28.367188 216.257812 27.90625 215.183594 C 27.449219 214.109375 27.136719 212.992188 26.972656 211.835938 C 26.957031 211.714844 26.890625 211.628906 26.777344 211.585938 C 25.800781 211.199219 24.882812 210.703125 24.023438 210.101562 C 23.164062 209.496094 22.386719 208.800781 21.691406 208.011719 C 21 207.226562 20.40625 206.367188 19.914062 205.4375 C 19.421875 204.507812 19.046875 203.535156 18.785156 202.519531 L 18.785156 202.496094 C 18.660156 201.996094 18.5625 201.492188 18.496094 200.984375 C 18.425781 200.476562 18.390625 199.964844 18.378906 199.449219 C 18.371094 198.9375 18.394531 198.425781 18.445312 197.914062 C 18.496094 197.402344 18.574219 196.898438 18.683594 196.394531 C 18.792969 195.894531 18.933594 195.398438 19.097656 194.914062 C 19.265625 194.429688 19.460938 193.953125 19.683594 193.492188 C 19.902344 193.027344 20.152344 192.578125 20.425781 192.144531 C 20.699219 191.710938 20.996094 191.292969 21.320312 190.894531 C 21.640625 190.492188 21.984375 190.113281 22.351562 189.753906 C 22.714844 189.394531 23.101562 189.058594 23.507812 188.742188 C 23.914062 188.425781 24.335938 188.136719 24.773438 187.871094 C 25.210938 187.605469 25.664062 187.363281 26.132812 187.152344 C 26.597656 186.9375 27.074219 186.753906 27.5625 186.59375 C 28.050781 186.4375 28.546875 186.308594 29.050781 186.207031 C 29.554688 186.105469 30.058594 186.035156 30.570312 185.996094 C 31.082031 185.953125 31.59375 185.941406 32.105469 185.960938 C 32.46875 185.972656 32.832031 186 33.183594 186.042969 C 33.300781 186.054688 33.394531 186.015625 33.46875 185.921875 C 33.542969 185.824219 33.554688 185.722656 33.511719 185.613281 C 32.847656 183.980469 32.546875 182.28125 32.609375 180.519531 C 32.898438 172.644531 40.652344 166.507812 49.910156 166.859375 C 51.675781 166.917969 53.398438 167.214844 55.082031 167.746094 C 55.160156 167.769531 55.238281 167.765625 55.3125 167.726562 C 55.390625 167.683594 55.441406 167.621094 55.46875 167.539062 C 57.125 162.035156 63.839844 158.238281 71.421875 158.523438 C 79.480469 158.824219 86.105469 163.574219 86.835938 169.574219 C 86.847656 169.679688 86.898438 169.753906 86.988281 169.808594 C 87.078125 169.859375 87.171875 169.863281 87.265625 169.824219 C 91.605469 168.023438 96.941406 168.550781 101.535156 171.238281 C 107.585938 174.777344 110.894531 181.269531 109.578125 187.03125 C 109.554688 187.132812 109.582031 187.226562 109.652344 187.308594 C 109.722656 187.390625 109.808594 187.425781 109.917969 187.410156 C 113.675781 187.039062 117.808594 187.914062 121.558594 189.871094 C 125.855469 192.117188 129.28125 195.621094 130.960938 199.492188 C 131.613281 200.957031 131.984375 202.492188 132.078125 204.09375 L 132.039062 204.125 C 131.96875 204.175781 131.925781 204.242188 131.910156 204.328125 C 131.894531 204.414062 131.914062 204.492188 131.960938 204.5625 C 131.996094 204.609375 132.039062 204.644531 132.09375 204.664062 C 132.097656 206.273438 131.734375 207.792969 131.003906 209.222656 Z M 135.234375 200.582031 C 134.582031 201.757812 133.734375 202.765625 132.691406 203.609375 C 132.554688 202.078125 132.175781 200.613281 131.554688 199.210938 C 129.820312 195.210938 126.285156 191.589844 121.863281 189.28125 C 118.148438 187.339844 114.054688 186.441406 110.300781 186.71875 C 111.425781 180.800781 108.011719 174.253906 101.871094 170.664062 C 97.246094 167.953125 91.871094 167.367188 87.421875 169.0625 C 86.421875 162.949219 79.652344 158.164062 71.46875 157.863281 C 63.738281 157.578125 56.867188 161.410156 54.980469 167.019531 C 53.335938 166.53125 51.65625 166.257812 49.941406 166.195312 C 40.347656 165.847656 32.289062 172.246094 31.988281 180.46875 C 31.929688 182.148438 32.183594 183.773438 32.75 185.355469 C 32.546875 185.335938 32.34375 185.324219 32.136719 185.320312 C 31.613281 185.300781 31.09375 185.308594 30.570312 185.347656 C 30.050781 185.386719 29.53125 185.457031 29.019531 185.554688 C 28.503906 185.652344 28 185.78125 27.5 185.9375 C 27 186.089844 26.511719 186.273438 26.03125 186.484375 C 25.554688 186.695312 25.089844 186.933594 24.636719 187.195312 C 24.183594 187.457031 23.75 187.746094 23.332031 188.058594 C 22.910156 188.371094 22.511719 188.707031 22.128906 189.0625 C 21.746094 189.421875 21.386719 189.800781 21.046875 190.199219 C 20.707031 190.597656 20.394531 191.011719 20.101562 191.449219 C 19.808594 191.882812 19.542969 192.332031 19.300781 192.796875 C 19.058594 193.257812 18.84375 193.734375 18.65625 194.222656 C 18.46875 194.714844 18.308594 195.210938 18.179688 195.71875 C 18.046875 196.222656 17.945312 196.738281 17.871094 197.253906 C 17.796875 197.773438 17.753906 198.292969 17.738281 198.816406 C 17.722656 199.339844 17.738281 199.863281 17.78125 200.382812 C 17.824219 200.90625 17.898438 201.421875 18 201.9375 C 16.527344 201.015625 15.277344 199.855469 14.238281 198.464844 C 13.203125 197.070312 12.449219 195.535156 11.988281 193.863281 C 11.644531 192.574219 11.5 191.261719 11.558594 189.925781 C 11.871094 182.285156 18.664062 176.300781 26.703125 176.5625 C 27.101562 176.5625 27.5 176.601562 27.886719 176.648438 C 27.941406 176.652344 27.996094 176.644531 28.046875 176.621094 C 28.097656 176.601562 28.140625 176.566406 28.171875 176.523438 C 28.207031 176.476562 28.226562 176.425781 28.234375 176.371094 C 28.238281 176.316406 28.230469 176.261719 28.210938 176.210938 C 27.484375 174.511719 27.15625 172.734375 27.230469 170.886719 C 27.566406 162.671875 36.128906 156.253906 46.292969 156.589844 C 48.226562 156.648438 50.121094 156.953125 51.976562 157.503906 C 52.058594 157.527344 52.136719 157.519531 52.214844 157.480469 C 52.289062 157.4375 52.339844 157.378906 52.367188 157.296875 C 54.203125 151.550781 61.597656 147.570312 69.941406 147.855469 C 78.800781 148.144531 86.074219 153.085938 86.859375 159.34375 C 86.871094 159.445312 86.921875 159.523438 87.007812 159.574219 C 87.097656 159.628906 87.191406 159.636719 87.285156 159.597656 C 92.066406 157.703125 97.933594 158.242188 102.980469 161.035156 C 109.621094 164.710938 113.242188 171.472656 111.785156 177.476562 C 111.757812 177.582031 111.78125 177.675781 111.851562 177.757812 C 111.921875 177.839844 112.011719 177.875 112.117188 177.863281 C 116.253906 177.46875 120.796875 178.367188 124.914062 180.410156 C 129.632812 182.742188 133.390625 186.390625 135.226562 190.417969 C 136.859375 194.007812 136.863281 197.617188 135.234375 200.582031 Z M 135.234375 200.582031 " fill-opacity="1" fill-rule="nonzero"/><path fill="#ff9292" d="M 49.910156 166.828125 C 46.828125 166.699219 43.886719 167.285156 41.089844 168.59375 C 39.828125 169.371094 38.5 170.234375 37.507812 170.894531 C 34.597656 173.347656 32.746094 176.71875 32.609375 180.488281 C 32.546875 182.25 32.847656 183.949219 33.511719 185.582031 C 33.554688 185.695312 33.542969 185.796875 33.46875 185.890625 C 33.394531 185.984375 33.300781 186.027344 33.183594 186.011719 C 32.832031 185.96875 32.46875 185.941406 32.105469 185.929688 C 31.59375 185.910156 31.082031 185.921875 30.570312 185.964844 C 30.058594 186.003906 29.550781 186.074219 29.046875 186.175781 C 28.542969 186.277344 28.046875 186.40625 27.558594 186.5625 C 27.070312 186.71875 26.59375 186.90625 26.125 187.117188 C 25.660156 187.332031 25.207031 187.570312 24.765625 187.835938 C 24.328125 188.101562 23.90625 188.394531 23.5 188.707031 C 23.09375 189.023438 22.707031 189.359375 22.339844 189.71875 C 21.976562 190.078125 21.628906 190.460938 21.308594 190.859375 C 20.984375 191.257812 20.6875 191.675781 20.414062 192.109375 C 20.136719 192.542969 19.890625 192.992188 19.667969 193.457031 C 19.445312 193.921875 19.25 194.394531 19.082031 194.878906 C 18.917969 195.367188 18.777344 195.859375 18.667969 196.363281 C 18.558594 196.863281 18.476562 197.371094 18.425781 197.882812 C 18.375 198.394531 18.351562 198.90625 18.363281 199.421875 C 18.371094 199.933594 18.40625 200.445312 18.476562 200.957031 C 18.542969 201.464844 18.640625 201.96875 18.765625 202.46875 L 18.765625 202.492188 C 19.027344 203.507812 19.402344 204.480469 19.894531 205.410156 C 20.386719 206.339844 20.976562 207.199219 21.671875 207.984375 C 22.367188 208.773438 23.144531 209.46875 24.003906 210.074219 C 24.863281 210.675781 25.78125 211.171875 26.757812 211.558594 C 26.871094 211.601562 26.9375 211.6875 26.953125 211.808594 C 27.117188 212.964844 27.429688 214.082031 27.886719 215.15625 C 28.34375 216.230469 28.933594 217.226562 29.65625 218.144531 C 30.378906 219.066406 31.207031 219.875 32.140625 220.574219 C 33.078125 221.273438 34.085938 221.839844 35.171875 222.273438 C 36.253906 222.707031 37.375 222.988281 38.535156 223.125 C 39.695312 223.261719 40.851562 223.246094 42.007812 223.074219 C 43.160156 222.90625 44.273438 222.589844 45.34375 222.125 C 46.417969 221.660156 47.410156 221.066406 48.324219 220.339844 C 48.414062 220.265625 48.515625 220.25 48.625 220.289062 C 48.738281 220.328125 48.804688 220.40625 48.824219 220.519531 C 50.242188 227.285156 56.292969 232.191406 63.539062 232.460938 C 68.328125 232.632812 72.863281 230.742188 75.960938 227.269531 C 76.023438 227.199219 76.097656 227.164062 76.191406 227.160156 L 76.242188 227.160156 C 76.351562 227.183594 76.429688 227.246094 76.472656 227.347656 C 78.785156 232.738281 84.226562 236.367188 90.335938 236.589844 C 96.492188 236.820312 102.195312 233.558594 104.882812 228.296875 C 104.96875 228.132812 105.097656 228.082031 105.269531 228.144531 C 106.914062 228.757812 108.609375 229.09375 110.359375 229.15625 C 112.402344 229.242188 114.386719 228.945312 116.316406 228.265625 C 118.246094 227.585938 119.980469 226.570312 121.519531 225.21875 C 123.015625 223.921875 124.191406 222.378906 125.046875 220.589844 C 125.90625 218.800781 126.371094 216.917969 126.449219 214.9375 C 111.15625 229.355469 100.535156 223.734375 100.535156 223.734375 C 89.558594 233.28125 75.007812 217.722656 75.007812 217.722656 C 61.367188 223.761719 58.480469 207.765625 58.480469 207.765625 C 58.480469 207.765625 42.042969 218.992188 35.910156 204.355469 C 29.777344 189.71875 40.117188 185.449219 40.117188 185.449219 C 35.816406 171.769531 52.410156 168.207031 54.796875 167.765625 L 54.796875 167.632812 C 53.203125 167.15625 51.574219 166.886719 49.910156 166.828125 Z M 49.910156 166.828125 " fill-opacity="1" fill-rule="nonzero"/><path fill="#ff9292" d="M 55.082031 167.714844 L 54.796875 167.765625 L 54.796875 168.519531 Z M 55.082031 167.714844 " fill-opacity="1" fill-rule="nonzero"/><path fill="#ffe9ec" d="M 84.484375 163.332031 C 85.09375 163.988281 85.628906 164.703125 86.085938 165.476562 L 87.273438 159.601562 C 87.179688 159.636719 87.09375 159.628906 87.007812 159.578125 C 86.917969 159.527344 86.867188 159.449219 86.855469 159.347656 C 86.070312 153.097656 78.796875 148.152344 69.9375 147.859375 C 66.027344 147.730469 62.324219 148.535156 59.300781 150.015625 C 59.308594 150.019531 82.757812 145.570312 84.484375 163.332031 Z M 84.484375 163.332031 " fill-opacity="1" fill-rule="nonzero"/><path fill="#ff9292" d="M 99.28125 223.761719 C 99.28125 223.761719 104.785156 219.253906 108.222656 207.878906 C 108.222656 207.878906 111.199219 218.839844 99.28125 223.761719 Z M 99.28125 223.761719 " fill-opacity="1" fill-rule="nonzero"/><path fill="#ff9292" d="M 116.582031 182.785156 C 113.808594 180.949219 110.355469 182.503906 110.355469 182.503906 C 110.574219 183.914062 110.550781 185.320312 110.292969 186.722656 C 113.472656 186.492188 116.882812 187.097656 120.105469 188.464844 C 121.183594 186.257812 119.15625 184.484375 116.582031 182.785156 Z M 116.582031 182.785156 " fill-opacity="1" fill-rule="nonzero"/><path fill="#ff9292" d="M 28.207031 176.210938 C 28.230469 176.261719 28.238281 176.316406 28.230469 176.371094 C 28.222656 176.425781 28.203125 176.476562 28.171875 176.519531 C 28.136719 176.566406 28.09375 176.597656 28.042969 176.621094 C 27.992188 176.644531 27.941406 176.652344 27.882812 176.644531 C 27.496094 176.601562 27.097656 176.574219 26.699219 176.5625 C 18.664062 176.300781 11.867188 182.292969 11.554688 189.925781 C 11.5 191.257812 11.640625 192.570312 11.984375 193.859375 C 12.449219 195.535156 13.199219 197.066406 14.234375 198.460938 C 15.273438 199.855469 16.527344 201.011719 17.996094 201.933594 C 17.894531 201.421875 17.820312 200.902344 17.777344 200.382812 C 17.734375 199.859375 17.71875 199.339844 17.734375 198.816406 C 17.746094 198.292969 17.792969 197.773438 17.863281 197.253906 C 17.9375 196.734375 18.042969 196.222656 18.171875 195.71875 C 18.304688 195.210938 18.464844 194.710938 18.652344 194.222656 C 18.839844 193.734375 19.050781 193.257812 19.292969 192.796875 C 19.535156 192.332031 19.800781 191.882812 20.09375 191.449219 C 20.386719 191.011719 20.703125 190.597656 21.039062 190.199219 C 21.378906 189.800781 21.738281 189.421875 22.121094 189.066406 C 22.503906 188.707031 22.902344 188.371094 23.324219 188.058594 C 23.742188 187.746094 24.175781 187.460938 24.628906 187.199219 C 25.082031 186.933594 25.546875 186.699219 26.023438 186.488281 C 26.503906 186.277344 26.992188 186.09375 27.492188 185.9375 C 27.992188 185.785156 28.496094 185.65625 29.011719 185.558594 C 29.523438 185.460938 30.042969 185.394531 30.5625 185.355469 C 31.082031 185.316406 31.605469 185.304688 32.128906 185.324219 C 32.332031 185.324219 32.539062 185.34375 32.742188 185.359375 C 32.171875 183.78125 31.917969 182.15625 31.980469 180.476562 C 32.28125 172.253906 40.339844 165.855469 49.933594 166.203125 C 51.648438 166.261719 53.328125 166.539062 54.972656 167.027344 C 36.226562 157.269531 28.207031 176.210938 28.207031 176.210938 Z M 28.207031 176.210938 " fill-opacity="1" fill-rule="nonzero"/><path fill="#ffe9ec" d="M 102.980469 161.042969 C 97.933594 158.246094 92.0625 157.710938 87.285156 159.601562 L 86.71875 162.394531 C 86.71875 162.394531 105.050781 157.5625 111.78125 177.480469 C 113.238281 171.476562 109.617188 164.714844 102.980469 161.042969 Z M 102.980469 161.042969 " fill-opacity="1" fill-rule="nonzero"/><path fill="#ff9292" d="M 41.5625 190.859375 C 41.5625 190.859375 51.214844 190.316406 54.9375 185.175781 C 54.9375 185.175781 54.683594 192.5625 44.332031 194.628906 C 44.332031 194.628906 46.761719 205.929688 39.34375 209.386719 C 39.34375 209.386719 43.488281 199.035156 40.964844 191.464844 " fill-opacity="1" fill-rule="nonzero"/><path fill="#ff9292" d="M 74.085938 157.25 C 74.085938 157.25 74.046875 157.589844 73.957031 158.089844 L 74.085938 158.128906 Z M 74.085938 157.25 " fill-opacity="1" fill-rule="nonzero"/><path fill="#ff9292" d="M 71.460938 157.867188 C 72.296875 157.894531 73.125 157.972656 73.953125 158.097656 L 73.953125 158.078125 C 72.457031 157.648438 58.265625 153.925781 53.125 166.5625 C 53.125 166.5625 53.898438 166.6875 55.027344 166.859375 C 56.996094 161.34375 63.804688 157.585938 71.460938 157.867188 Z M 71.460938 157.867188 " fill-opacity="1" fill-rule="nonzero"/><path fill="#ffe9ec" d="M 77.332031 161.617188 C 86.535156 166.3125 84.835938 175.847656 82.347656 181.078125 C 82.347656 181.078125 89.273438 176.148438 87.652344 169.65625 C 87.527344 169.707031 87.402344 169.746094 87.277344 169.796875 C 87.183594 169.835938 87.089844 169.832031 87 169.78125 C 86.910156 169.726562 86.859375 169.648438 86.847656 169.546875 C 86.117188 163.546875 79.492188 158.796875 71.433594 158.496094 C 66.996094 158.328125 62.851562 159.5625 59.847656 161.71875 L 57.605469 163.742188 C 57.605469 163.742188 68.125 156.925781 77.332031 161.617188 Z M 77.332031 161.617188 " fill-opacity="1" fill-rule="nonzero"/><path fill="#ffe9ec" d="M 87.273438 171.957031 C 87.273438 171.957031 104.269531 168.21875 107.84375 187.632812 L 110.292969 186.722656 C 110.292969 186.722656 110.019531 164.703125 87.652344 169.65625 Z M 87.273438 171.957031 " fill-opacity="1" fill-rule="nonzero"/><path fill="#ffe9ec" d="M 131.972656 204.535156 C 131.925781 204.464844 131.90625 204.386719 131.921875 204.300781 C 131.9375 204.214844 131.980469 204.148438 132.050781 204.097656 L 132.089844 204.066406 C 131.996094 202.464844 131.625 200.929688 130.972656 199.464844 C 129.292969 195.59375 125.867188 192.089844 121.570312 189.84375 C 117.820312 187.882812 113.6875 187.011719 109.929688 187.382812 C 109.773438 187.402344 109.667969 187.339844 109.609375 187.191406 C 108.074219 188.367188 104.585938 191.761719 106.109375 197.550781 C 106.109375 197.550781 108.128906 186.804688 115.191406 189.875 C 122.253906 192.941406 129.378906 196.953125 129.238281 204.355469 C 129.101562 211.757812 121.929688 214.742188 115.347656 213.789062 C 115.347656 213.789062 121.332031 215.070312 126.46875 215.015625 C 126.46875 214.996094 126.46875 214.976562 126.46875 214.960938 C 126.480469 214.574219 126.480469 214.1875 126.46875 213.804688 C 126.464844 213.671875 126.519531 213.574219 126.636719 213.511719 C 128.546875 212.546875 130.003906 211.117188 131.003906 209.222656 C 131.746094 207.785156 132.109375 206.257812 132.105469 204.636719 C 132.050781 204.617188 132.007812 204.582031 131.972656 204.535156 Z M 131.972656 204.535156 " fill-opacity="1" fill-rule="nonzero"/><path fill="#ffe9ec" d="M 135.234375 200.582031 C 136.863281 197.617188 136.851562 194.007812 135.234375 190.414062 C 133.402344 186.386719 129.644531 182.738281 124.921875 180.40625 C 123.265625 179.585938 121.542969 178.953125 119.75 178.503906 C 119.75 178.503906 132.863281 186.054688 131.167969 198.382812 C 131.304688 198.660156 131.4375 198.933594 131.558594 199.214844 C 132.179688 200.617188 132.558594 202.085938 132.699219 203.613281 C 133.738281 202.769531 134.585938 201.757812 135.234375 200.582031 Z M 135.234375 200.582031 " fill-opacity="1" fill-rule="nonzero"/><path fill="#8c2222" d="M 72.011719 187.074219 C 72.25 187.085938 72.484375 187.132812 72.714844 187.222656 C 72.949219 187.3125 73.171875 187.441406 73.386719 187.605469 C 73.597656 187.769531 73.800781 187.972656 73.992188 188.210938 C 74.179688 188.445312 74.355469 188.710938 74.511719 189.011719 C 74.671875 189.308594 74.808594 189.632812 74.929688 189.980469 C 75.050781 190.328125 75.148438 190.691406 75.226562 191.078125 C 75.300781 191.460938 75.355469 191.855469 75.386719 192.261719 C 75.417969 192.667969 75.429688 193.078125 75.414062 193.492188 C 75.398438 193.902344 75.359375 194.308594 75.296875 194.714844 C 75.234375 195.117188 75.152344 195.503906 75.046875 195.882812 C 74.941406 196.261719 74.816406 196.617188 74.671875 196.957031 C 74.527344 197.292969 74.363281 197.605469 74.183594 197.890625 C 74.003906 198.175781 73.8125 198.429688 73.605469 198.652344 C 73.398438 198.875 73.183594 199.058594 72.957031 199.210938 C 72.730469 199.359375 72.5 199.46875 72.261719 199.542969 C 72.023438 199.613281 71.785156 199.644531 71.546875 199.636719 C 71.308594 199.625 71.074219 199.578125 70.84375 199.488281 C 70.613281 199.398438 70.390625 199.273438 70.175781 199.105469 C 69.960938 198.941406 69.757812 198.738281 69.570312 198.503906 C 69.378906 198.265625 69.207031 198 69.046875 197.699219 C 68.890625 197.402344 68.75 197.082031 68.632812 196.734375 C 68.511719 196.386719 68.414062 196.019531 68.335938 195.632812 C 68.257812 195.25 68.203125 194.855469 68.171875 194.449219 C 68.140625 194.042969 68.132812 193.632812 68.148438 193.222656 C 68.164062 192.808594 68.203125 192.402344 68.261719 192 C 68.324219 191.597656 68.40625 191.207031 68.511719 190.828125 C 68.617188 190.449219 68.742188 190.09375 68.890625 189.753906 C 69.035156 189.417969 69.195312 189.105469 69.375 188.820312 C 69.554688 188.535156 69.75 188.28125 69.957031 188.058594 C 70.160156 187.835938 70.378906 187.652344 70.605469 187.503906 C 70.832031 187.351562 71.0625 187.242188 71.300781 187.171875 C 71.535156 187.097656 71.773438 187.066406 72.011719 187.074219 Z M 72.011719 187.074219 " fill-opacity="1" fill-rule="nonzero"/><path fill="#8c2222" d="M 132.230469 205.140625 C 131.984375 205.140625 132.5 204.96875 132.105469 204.636719 C 131.570312 204.191406 131.425781 203.964844 131.78125 203.710938 C 133.050781 202.828125 134.066406 201.707031 134.820312 200.351562 C 136.378906 197.523438 136.371094 194.0625 134.796875 190.609375 C 133.003906 186.679688 129.328125 183.113281 124.703125 180.828125 C 120.664062 178.832031 116.210938 177.949219 112.160156 178.335938 C 112.035156 178.351562 111.914062 178.332031 111.796875 178.285156 C 111.675781 178.238281 111.578125 178.167969 111.492188 178.070312 C 111.410156 177.972656 111.355469 177.863281 111.324219 177.742188 C 111.292969 177.617188 111.292969 177.492188 111.324219 177.371094 C 112.730469 171.582031 109.207031 165.027344 102.75 161.453125 C 97.824219 158.726562 92.113281 158.199219 87.453125 160.039062 C 87.34375 160.085938 87.226562 160.101562 87.105469 160.09375 C 86.984375 160.082031 86.871094 160.046875 86.765625 159.984375 C 86.664062 159.925781 86.578125 159.84375 86.511719 159.742188 C 86.445312 159.640625 86.402344 159.527344 86.390625 159.410156 C 85.632812 153.375 78.554688 148.617188 69.921875 148.332031 C 61.785156 148.066406 54.585938 151.898438 52.8125 157.449219 C 52.746094 157.652344 52.621094 157.804688 52.429688 157.902344 C 52.242188 158.003906 52.046875 158.023438 51.839844 157.960938 C 50.023438 157.421875 48.167969 157.125 46.273438 157.066406 C 36.355469 156.75 28.027344 162.953125 27.699219 170.910156 C 27.628906 172.6875 27.945312 174.390625 28.640625 176.027344 C 28.757812 176.304688 28.726562 176.5625 28.546875 176.800781 C 28.367188 177.042969 28.128906 177.144531 27.832031 177.113281 C 27.457031 177.070312 27.070312 177.042969 26.675781 177.03125 C 18.890625 176.773438 12.324219 182.570312 12.023438 189.945312 C 11.972656 191.230469 12.109375 192.492188 12.441406 193.734375 C 12.921875 195.46875 13.71875 197.042969 14.832031 198.457031 C 15.941406 199.875 17.28125 201.019531 18.851562 201.898438 C 19.042969 202.003906 19.167969 202.160156 19.226562 202.371094 C 19.285156 202.582031 19.261719 202.78125 19.152344 202.96875 C 19.046875 203.160156 18.886719 203.285156 18.679688 203.339844 C 18.46875 203.398438 18.269531 203.371094 18.082031 203.265625 C 16.328125 202.28125 14.832031 201 13.589844 199.417969 C 12.351562 197.835938 11.460938 196.078125 10.921875 194.140625 C 10.554688 192.742188 10.402344 191.324219 10.460938 189.878906 C 10.796875 181.644531 18.089844 175.179688 26.738281 175.460938 L 26.765625 175.460938 C 26.28125 173.960938 26.074219 172.421875 26.136719 170.847656 C 26.5 162.03125 35.554688 155.136719 46.332031 155.492188 C 48.109375 155.550781 49.859375 155.800781 51.582031 156.253906 C 53.917969 150.4375 61.496094 146.480469 69.976562 146.757812 C 78.925781 147.054688 86.359375 151.925781 87.78125 158.253906 C 92.6875 156.632812 98.492188 157.296875 103.507812 160.078125 C 110.199219 163.78125 114 170.496094 113.050781 176.699219 C 117.09375 176.511719 121.4375 177.460938 125.394531 179.417969 C 130.335938 181.859375 134.28125 185.699219 136.21875 189.957031 C 138.003906 193.875 137.992188 197.828125 136.1875 201.113281 C 135.316406 202.675781 134.148438 203.972656 132.679688 204.992188 C 132.546875 205.089844 132.394531 205.136719 132.230469 205.140625 Z M 132.230469 205.140625 " fill-opacity="1" fill-rule="nonzero"/><path fill="#8c2222" d="M 90.945312 237.722656 C 90.730469 237.722656 90.519531 237.722656 90.304688 237.722656 C 84.179688 237.492188 78.679688 234.0625 75.96875 228.871094 C 75.140625 229.667969 74.242188 230.371094 73.273438 230.988281 C 72.304688 231.601562 71.28125 232.109375 70.207031 232.515625 C 69.136719 232.921875 68.03125 233.214844 66.898438 233.394531 C 65.765625 233.578125 64.625 233.640625 63.480469 233.589844 C 56.148438 233.320312 49.957031 228.589844 48.023438 221.9375 C 47.527344 222.265625 47.015625 222.5625 46.480469 222.832031 C 45.949219 223.097656 45.402344 223.328125 44.84375 223.527344 C 44.28125 223.726562 43.710938 223.886719 43.128906 224.015625 C 42.550781 224.144531 41.960938 224.234375 41.371094 224.289062 C 40.777344 224.34375 40.183594 224.359375 39.589844 224.339844 C 38.996094 224.320312 38.40625 224.265625 37.816406 224.171875 C 37.230469 224.078125 36.652344 223.949219 36.078125 223.785156 C 35.507812 223.617188 34.949219 223.417969 34.402344 223.183594 C 33.855469 222.949219 33.324219 222.679688 32.8125 222.378906 C 32.300781 222.078125 31.804688 221.75 31.332031 221.386719 C 30.863281 221.023438 30.414062 220.632812 29.988281 220.214844 C 29.566406 219.800781 29.167969 219.355469 28.800781 218.890625 C 28.429688 218.421875 28.09375 217.933594 27.785156 217.425781 C 27.476562 216.914062 27.199219 216.390625 26.957031 215.847656 C 26.714844 215.300781 26.503906 214.746094 26.332031 214.175781 C 26.15625 213.605469 26.019531 213.027344 25.917969 212.441406 C 25.371094 212.207031 24.839844 211.9375 24.328125 211.636719 C 23.8125 211.332031 23.320312 211 22.847656 210.636719 C 22.378906 210.273438 21.929688 209.882812 21.507812 209.460938 C 21.082031 209.042969 20.6875 208.597656 20.320312 208.128906 C 19.949219 207.664062 19.613281 207.171875 19.304688 206.660156 C 19 206.152344 18.722656 205.625 18.480469 205.078125 C 18.238281 204.535156 18.03125 203.976562 17.859375 203.40625 C 17.6875 202.835938 17.550781 202.257812 17.449219 201.667969 C 17.351562 201.082031 17.285156 200.488281 17.257812 199.894531 C 17.230469 199.296875 17.242188 198.703125 17.289062 198.109375 C 17.335938 197.515625 17.417969 196.925781 17.539062 196.339844 C 17.65625 195.757812 17.8125 195.183594 18.003906 194.617188 C 18.195312 194.054688 18.421875 193.503906 18.679688 192.96875 C 18.941406 192.429688 19.230469 191.914062 19.554688 191.410156 C 19.878906 190.910156 20.234375 190.433594 20.617188 189.976562 C 21 189.519531 21.410156 189.089844 21.847656 188.683594 C 23.230469 187.390625 24.808594 186.410156 26.582031 185.746094 C 28.355469 185.082031 30.1875 184.78125 32.082031 184.847656 C 31.644531 183.414062 31.457031 181.949219 31.511719 180.449219 C 31.824219 171.964844 40.101562 165.363281 49.953125 165.71875 C 51.554688 165.777344 53.132812 166.019531 54.679688 166.441406 C 56.828125 160.871094 63.738281 157.097656 71.476562 157.386719 C 79.636719 157.6875 86.429688 162.367188 87.769531 168.429688 C 92.242188 166.921875 97.523438 167.578125 102.105469 170.253906 C 108.210938 173.824219 111.695312 180.257812 110.859375 186.210938 C 114.542969 186.054688 118.488281 186.980469 122.082031 188.859375 C 126.601562 191.21875 130.210938 194.921875 131.984375 199.015625 C 133.621094 202.78125 133.617188 206.582031 131.984375 209.722656 C 130.960938 211.65625 129.496094 213.164062 127.59375 214.238281 C 127.59375 214.488281 127.59375 214.742188 127.59375 214.992188 C 127.511719 217.125 127.007812 219.152344 126.085938 221.078125 C 125.164062 223 123.898438 224.660156 122.289062 226.058594 C 120.648438 227.503906 118.796875 228.59375 116.734375 229.320312 C 114.671875 230.046875 112.546875 230.363281 110.363281 230.265625 C 108.726562 230.210938 107.128906 229.925781 105.574219 229.417969 C 102.652344 234.53125 97.042969 237.722656 90.945312 237.722656 Z M 76.199219 226.710938 C 76.242188 226.710938 76.285156 226.710938 76.328125 226.710938 C 76.609375 226.757812 76.808594 226.914062 76.921875 227.175781 C 79.164062 232.398438 84.441406 235.914062 90.367188 236.132812 C 96.335938 236.34375 101.875 233.199219 104.472656 228.097656 C 104.5625 227.917969 104.699219 227.796875 104.886719 227.722656 C 105.070312 227.652344 105.257812 227.648438 105.441406 227.71875 C 107.039062 228.3125 108.6875 228.636719 110.390625 228.699219 C 112.375 228.789062 114.304688 228.503906 116.179688 227.847656 C 118.054688 227.1875 119.742188 226.203125 121.234375 224.894531 C 122.683594 223.636719 123.824219 222.140625 124.65625 220.410156 C 125.484375 218.679688 125.9375 216.855469 126.007812 214.9375 C 126.023438 214.5625 126.007812 214.1875 126.007812 213.816406 C 125.996094 213.484375 126.136719 213.242188 126.429688 213.089844 C 128.25 212.167969 129.636719 210.804688 130.589844 209 C 132 206.285156 131.980469 202.964844 130.546875 199.644531 C 128.910156 195.871094 125.558594 192.449219 121.355469 190.253906 C 117.6875 188.339844 113.648438 187.472656 109.980469 187.847656 C 109.855469 187.859375 109.730469 187.84375 109.613281 187.796875 C 109.496094 187.75 109.398438 187.679688 109.3125 187.585938 C 109.230469 187.492188 109.171875 187.382812 109.140625 187.257812 C 109.109375 187.136719 109.109375 187.015625 109.136719 186.890625 C 110.40625 181.332031 107.1875 175.046875 101.3125 171.609375 C 96.84375 168.996094 91.667969 168.476562 87.464844 170.21875 C 87.351562 170.265625 87.234375 170.285156 87.109375 170.277344 C 86.988281 170.269531 86.875 170.234375 86.769531 170.171875 C 86.660156 170.113281 86.574219 170.03125 86.507812 169.925781 C 86.441406 169.824219 86.398438 169.710938 86.382812 169.589844 C 85.691406 163.816406 79.253906 159.242188 71.421875 158.953125 C 64.035156 158.675781 57.53125 162.328125 55.929688 167.632812 C 55.867188 167.839844 55.738281 167.996094 55.542969 168.097656 C 55.351562 168.199219 55.148438 168.21875 54.941406 168.152344 C 53.300781 167.632812 51.617188 167.347656 49.898438 167.285156 C 40.898438 166.972656 33.367188 172.898438 33.082031 180.515625 C 33.019531 182.214844 33.308594 183.851562 33.949219 185.425781 C 34 185.558594 34.015625 185.691406 33.996094 185.828125 C 33.976562 185.964844 33.925781 186.089844 33.839844 186.199219 C 33.757812 186.308594 33.652344 186.390625 33.523438 186.445312 C 33.394531 186.5 33.261719 186.519531 33.125 186.503906 C 32.785156 186.460938 32.429688 186.433594 32.089844 186.421875 C 31.34375 186.394531 30.597656 186.429688 29.855469 186.535156 C 29.113281 186.636719 28.386719 186.804688 27.671875 187.039062 C 26.960938 187.269531 26.273438 187.5625 25.613281 187.914062 C 24.953125 188.265625 24.324219 188.671875 23.734375 189.132812 C 23.144531 189.597656 22.601562 190.105469 22.101562 190.664062 C 21.601562 191.222656 21.152344 191.820312 20.757812 192.457031 C 20.363281 193.09375 20.023438 193.761719 19.746094 194.457031 C 19.46875 195.152344 19.25 195.871094 19.097656 196.605469 C 18.945312 197.335938 18.859375 198.078125 18.835938 198.828125 C 18.8125 199.578125 18.855469 200.324219 18.960938 201.066406 C 19.070312 201.808594 19.242188 202.535156 19.476562 203.25 C 19.714844 203.960938 20.007812 204.648438 20.363281 205.304688 C 20.71875 205.964844 21.128906 206.589844 21.597656 207.179688 C 22.0625 207.765625 22.574219 208.308594 23.132812 208.804688 C 23.695312 209.304688 24.292969 209.75 24.933594 210.140625 C 25.570312 210.53125 26.238281 210.867188 26.9375 211.140625 C 27.21875 211.253906 27.382812 211.460938 27.425781 211.761719 C 27.582031 212.878906 27.882812 213.953125 28.324219 214.992188 C 28.769531 216.027344 29.335938 216.988281 30.03125 217.875 C 30.726562 218.761719 31.527344 219.542969 32.429688 220.21875 C 33.332031 220.894531 34.304688 221.4375 35.351562 221.855469 C 36.394531 222.273438 37.476562 222.550781 38.59375 222.679688 C 39.714844 222.8125 40.828125 222.796875 41.945312 222.632812 C 43.058594 222.472656 44.132812 222.164062 45.164062 221.71875 C 46.199219 221.273438 47.15625 220.699219 48.039062 219.996094 C 48.144531 219.914062 48.265625 219.859375 48.398438 219.835938 C 48.535156 219.816406 48.664062 219.828125 48.792969 219.871094 C 48.921875 219.917969 49.027344 219.992188 49.117188 220.09375 C 49.207031 220.199219 49.265625 220.316406 49.292969 220.449219 C 50.664062 227.003906 56.535156 231.753906 63.5625 232.015625 C 64.691406 232.066406 65.8125 231.992188 66.921875 231.796875 C 68.035156 231.601562 69.109375 231.285156 70.152344 230.847656 C 71.195312 230.414062 72.175781 229.867188 73.097656 229.214844 C 74.019531 228.5625 74.859375 227.816406 75.617188 226.980469 C 75.769531 226.804688 75.964844 226.714844 76.199219 226.710938 Z M 131.28125 209.371094 Z M 131.28125 209.371094 " fill-opacity="1" fill-rule="nonzero"/><path fill="#8c2222" d="M 40.117188 210.171875 C 39.769531 210.171875 39.527344 210.007812 39.394531 209.683594 C 39.261719 209.355469 39.320312 209.070312 39.570312 208.824219 C 42.839844 205.625 44.457031 202.367188 44.378906 199.140625 C 44.28125 194.882812 41.191406 192.078125 41.160156 192.050781 C 41 191.910156 40.914062 191.730469 40.902344 191.511719 C 40.890625 191.296875 40.953125 191.109375 41.097656 190.949219 C 41.238281 190.785156 41.417969 190.699219 41.632812 190.683594 C 41.847656 190.671875 42.039062 190.734375 42.199219 190.875 C 42.347656 191.007812 45.820312 194.132812 45.949219 199.082031 C 46.042969 202.769531 44.265625 206.425781 40.667969 209.949219 C 40.515625 210.097656 40.332031 210.171875 40.117188 210.171875 Z M 40.117188 210.171875 " fill-opacity="1" fill-rule="nonzero"/><path fill="#8c2222" d="M 43.832031 195.082031 C 43.613281 195.082031 43.429688 195.003906 43.277344 194.851562 C 43.121094 194.699219 43.046875 194.511719 43.046875 194.296875 C 43.046875 194.078125 43.121094 193.894531 43.277344 193.742188 C 43.429688 193.585938 43.613281 193.511719 43.832031 193.511719 C 44.210938 193.511719 53.121094 193.511719 54.003906 185.363281 C 54.027344 185.148438 54.125 184.972656 54.292969 184.839844 C 54.460938 184.703125 54.652344 184.644531 54.871094 184.667969 C 55.085938 184.691406 55.261719 184.789062 55.394531 184.957031 C 55.53125 185.125 55.589844 185.320312 55.566406 185.535156 C 54.550781 194.96875 44.234375 195.082031 43.832031 195.082031 Z M 43.832031 195.082031 " fill-opacity="1" fill-rule="nonzero"/><path fill="#8c2222" d="M 121.003906 215.890625 C 118.851562 215.886719 116.800781 215.421875 114.855469 214.5 C 114.65625 214.410156 114.523438 214.261719 114.449219 214.058594 C 114.375 213.855469 114.382812 213.65625 114.472656 213.457031 C 114.566406 213.261719 114.710938 213.125 114.914062 213.050781 C 115.117188 212.976562 115.320312 212.984375 115.515625 213.078125 C 121.359375 215.800781 126.347656 213.128906 126.394531 213.101562 C 126.582031 213.007812 126.777344 212.996094 126.976562 213.058594 C 127.175781 213.121094 127.324219 213.242188 127.425781 213.425781 C 127.527344 213.609375 127.550781 213.800781 127.5 214.003906 C 127.445312 214.207031 127.332031 214.363281 127.15625 214.476562 C 125.21875 215.4375 123.167969 215.910156 121.003906 215.890625 Z M 121.003906 215.890625 " fill-opacity="1" fill-rule="nonzero"/><path fill="#8c2222" d="M 100.554688 224.546875 C 100.359375 224.546875 100.183594 224.480469 100.035156 224.351562 C 99.886719 224.222656 99.800781 224.058594 99.773438 223.863281 C 99.746094 223.667969 99.789062 223.488281 99.902344 223.320312 C 100.011719 223.15625 100.160156 223.050781 100.351562 223 C 109.941406 220.40625 107.609375 210.007812 107.503906 209.570312 C 107.453125 209.359375 107.488281 209.160156 107.601562 208.976562 C 107.714844 208.792969 107.875 208.675781 108.085938 208.625 C 108.296875 208.574219 108.496094 208.605469 108.679688 208.722656 C 108.863281 208.835938 108.980469 209 109.03125 209.210938 C 109.0625 209.332031 111.828125 221.527344 100.761719 224.523438 C 100.691406 224.539062 100.625 224.546875 100.554688 224.546875 Z M 100.554688 224.546875 " fill-opacity="1" fill-rule="nonzero"/><path fill="#8c2222" d="M 76.199219 228.28125 C 76.074219 228.28125 75.953125 228.253906 75.839844 228.195312 C 75.730469 228.136719 75.636719 228.058594 75.5625 227.953125 C 75.488281 227.851562 75.441406 227.738281 75.421875 227.613281 C 75.402344 227.488281 75.410156 227.367188 75.453125 227.246094 C 76.722656 223.476562 74.539062 221.714844 74.527344 221.6875 C 74.355469 221.554688 74.257812 221.378906 74.230469 221.164062 C 74.207031 220.949219 74.257812 220.757812 74.390625 220.585938 C 74.527344 220.414062 74.699219 220.316406 74.914062 220.289062 C 75.128906 220.265625 75.324219 220.316406 75.492188 220.453125 C 75.617188 220.550781 78.5625 222.925781 76.945312 227.734375 C 76.894531 227.898438 76.796875 228.027344 76.660156 228.128906 C 76.523438 228.230469 76.371094 228.28125 76.199219 228.28125 Z M 76.199219 228.28125 " fill-opacity="1" fill-rule="nonzero"/><path fill="#8c2222" d="M 82.347656 181.863281 C 82.179688 181.863281 82.027344 181.816406 81.886719 181.714844 C 81.75 181.613281 81.65625 181.484375 81.601562 181.324219 C 81.550781 181.160156 81.550781 181 81.601562 180.835938 C 81.65625 180.675781 81.75 180.542969 81.886719 180.445312 C 88.507812 175.625 86.511719 170.023438 86.425781 169.792969 C 86.355469 169.59375 86.367188 169.398438 86.457031 169.203125 C 86.542969 169.011719 86.6875 168.878906 86.886719 168.800781 C 87.085938 168.726562 87.28125 168.730469 87.476562 168.8125 C 87.667969 168.898438 87.808594 169.039062 87.890625 169.234375 C 87.917969 169.300781 90.433594 176.179688 82.800781 181.71875 C 82.667969 181.816406 82.515625 181.863281 82.347656 181.863281 Z M 82.347656 181.863281 " fill-opacity="1" fill-rule="nonzero"/><path fill="#8c2222" d="M 106.109375 198.335938 C 105.921875 198.335938 105.753906 198.277344 105.609375 198.15625 C 105.464844 198.035156 105.375 197.882812 105.339844 197.699219 C 103.535156 188.140625 109.625 186.332031 109.6875 186.316406 C 109.890625 186.269531 110.085938 186.296875 110.265625 186.402344 C 110.449219 186.507812 110.566406 186.664062 110.625 186.867188 C 110.683594 187.070312 110.660156 187.265625 110.5625 187.449219 C 110.464844 187.636719 110.3125 187.761719 110.113281 187.828125 C 109.910156 187.886719 105.359375 189.332031 106.875 197.40625 C 106.917969 197.621094 106.878906 197.816406 106.753906 198 C 106.632812 198.179688 106.464844 198.292969 106.25 198.332031 C 106.203125 198.335938 106.15625 198.339844 106.109375 198.335938 Z M 106.109375 198.335938 " fill-opacity="1" fill-rule="nonzero"/><path fill="#8c2222" d="M 64.515625 177.136719 C 63.695312 177.152344 62.886719 177.054688 62.097656 176.835938 C 61.304688 176.621094 60.558594 176.292969 59.863281 175.859375 C 59.167969 175.425781 58.546875 174.902344 58.003906 174.285156 C 57.457031 173.667969 57.015625 172.988281 56.667969 172.242188 C 56.589844 172.042969 56.59375 171.839844 56.679688 171.644531 C 56.765625 171.445312 56.910156 171.304688 57.109375 171.226562 C 57.3125 171.144531 57.511719 171.148438 57.710938 171.234375 C 57.910156 171.320312 58.046875 171.464844 58.128906 171.667969 C 58.214844 171.882812 60.347656 176.972656 67.320312 175.183594 C 67.527344 175.140625 67.71875 175.175781 67.894531 175.289062 C 68.070312 175.398438 68.183594 175.554688 68.238281 175.757812 C 68.289062 175.960938 68.265625 176.152344 68.160156 176.335938 C 68.058594 176.519531 67.910156 176.640625 67.710938 176.703125 C 66.664062 176.984375 65.597656 177.128906 64.515625 177.136719 Z M 64.515625 177.136719 " fill-opacity="1" fill-rule="nonzero"/><path fill="#8c2222" d="M 85.742188 187.5 C 85.980469 187.511719 86.214844 187.558594 86.445312 187.648438 C 86.675781 187.738281 86.898438 187.867188 87.113281 188.03125 C 87.328125 188.199219 87.53125 188.398438 87.722656 188.636719 C 87.910156 188.871094 88.085938 189.136719 88.242188 189.4375 C 88.398438 189.734375 88.539062 190.058594 88.660156 190.40625 C 88.777344 190.753906 88.878906 191.117188 88.953125 191.503906 C 89.03125 191.886719 89.085938 192.28125 89.117188 192.6875 C 89.148438 193.09375 89.15625 193.503906 89.140625 193.917969 C 89.128906 194.328125 89.089844 194.734375 89.027344 195.140625 C 88.964844 195.542969 88.882812 195.933594 88.777344 196.308594 C 88.671875 196.6875 88.546875 197.042969 88.402344 197.382812 C 88.257812 197.71875 88.09375 198.03125 87.914062 198.316406 C 87.734375 198.601562 87.542969 198.855469 87.335938 199.078125 C 87.128906 199.300781 86.910156 199.484375 86.683594 199.636719 C 86.460938 199.785156 86.226562 199.894531 85.992188 199.96875 C 85.753906 200.039062 85.515625 200.070312 85.277344 200.0625 C 85.039062 200.050781 84.804688 200.003906 84.574219 199.914062 C 84.34375 199.824219 84.121094 199.699219 83.90625 199.53125 C 83.691406 199.367188 83.488281 199.164062 83.296875 198.929688 C 83.109375 198.691406 82.933594 198.425781 82.777344 198.128906 C 82.621094 197.828125 82.480469 197.507812 82.359375 197.160156 C 82.242188 196.8125 82.140625 196.445312 82.066406 196.058594 C 81.988281 195.675781 81.933594 195.28125 81.902344 194.875 C 81.871094 194.46875 81.863281 194.058594 81.878906 193.648438 C 81.890625 193.234375 81.929688 192.828125 81.992188 192.425781 C 82.054688 192.023438 82.136719 191.632812 82.242188 191.253906 C 82.347656 190.875 82.472656 190.519531 82.617188 190.179688 C 82.761719 189.84375 82.925781 189.53125 83.105469 189.246094 C 83.285156 188.960938 83.476562 188.707031 83.683594 188.484375 C 83.890625 188.261719 84.109375 188.078125 84.335938 187.929688 C 84.558594 187.777344 84.792969 187.667969 85.027344 187.597656 C 85.265625 187.523438 85.503906 187.492188 85.742188 187.5 Z M 85.742188 187.5 " fill-opacity="1" fill-rule="nonzero"/><path fill="#8c2222" d="M 78.484375 210.710938 C 78.164062 210.714844 77.839844 210.699219 77.519531 210.667969 C 72.730469 210.203125 69.65625 206.484375 69.535156 206.324219 C 69.398438 206.15625 69.339844 205.964844 69.363281 205.75 C 69.382812 205.535156 69.480469 205.355469 69.648438 205.21875 C 69.816406 205.082031 70.007812 205.027344 70.222656 205.046875 C 70.4375 205.070312 70.613281 205.164062 70.75 205.332031 C 70.777344 205.367188 73.554688 208.714844 77.6875 209.105469 C 80.28125 209.347656 82.890625 208.390625 85.445312 206.25 C 85.613281 206.113281 85.800781 206.054688 86.015625 206.074219 C 86.230469 206.09375 86.40625 206.1875 86.542969 206.351562 C 86.679688 206.515625 86.742188 206.707031 86.722656 206.921875 C 86.703125 207.136719 86.613281 207.3125 86.453125 207.453125 C 83.863281 209.621094 81.1875 210.710938 78.484375 210.710938 Z M 78.484375 210.710938 " fill-opacity="1" fill-rule="nonzero"/><path fill="#8c2222" d="M 86.039062 166.8125 C 85.726562 166.8125 85.5 166.675781 85.351562 166.402344 C 85.203125 166.128906 85.210938 165.863281 85.378906 165.601562 C 87.226562 162.738281 86.417969 159.546875 86.410156 159.511719 C 86.351562 159.304688 86.378906 159.105469 86.488281 158.917969 C 86.59375 158.730469 86.753906 158.605469 86.964844 158.550781 C 87.171875 158.496094 87.371094 158.519531 87.558594 158.628906 C 87.746094 158.738281 87.867188 158.894531 87.925781 159.105469 C 87.964844 159.261719 88.933594 162.988281 86.695312 166.453125 C 86.542969 166.695312 86.320312 166.8125 86.039062 166.8125 Z M 86.039062 166.8125 " fill-opacity="1" fill-rule="nonzero"/><path fill="#8c2222" d="M 120.105469 189.582031 C 120.058594 189.589844 120.015625 189.589844 119.972656 189.582031 C 119.757812 189.546875 119.585938 189.441406 119.460938 189.265625 C 119.335938 189.085938 119.292969 188.890625 119.332031 188.679688 C 120.054688 184.410156 116.808594 183.640625 116.433594 183.566406 C 116.222656 183.527344 116.054688 183.417969 115.933594 183.238281 C 115.808594 183.058594 115.769531 182.863281 115.808594 182.648438 C 115.851562 182.4375 115.960938 182.269531 116.136719 182.148438 C 116.316406 182.023438 116.511719 181.984375 116.726562 182.023438 C 116.78125 182.023438 121.875 183.054688 120.875 188.941406 C 120.839844 189.128906 120.75 189.28125 120.605469 189.402344 C 120.460938 189.523438 120.292969 189.585938 120.105469 189.582031 Z M 120.105469 189.582031 " fill-opacity="1" fill-rule="nonzero"/><path fill="#8c2222" d="M 51.199219 162.855469 L 51.132812 162.855469 C 50.917969 162.835938 50.738281 162.746094 50.597656 162.582031 C 50.457031 162.414062 50.394531 162.226562 50.414062 162.007812 C 50.660156 158.933594 51.296875 157.039062 51.324219 156.957031 C 51.402344 156.761719 51.535156 156.621094 51.726562 156.53125 C 51.914062 156.445312 52.109375 156.433594 52.308594 156.5 C 52.507812 156.570312 52.65625 156.695312 52.75 156.882812 C 52.847656 157.070312 52.867188 157.265625 52.808594 157.464844 C 52.359375 158.992188 52.082031 160.546875 51.976562 162.132812 C 51.960938 162.335938 51.875 162.507812 51.726562 162.644531 C 51.578125 162.785156 51.402344 162.855469 51.199219 162.855469 Z M 51.199219 162.855469 " fill-opacity="1" fill-rule="nonzero"/><g clip-path="url(#75b0324dbb)"><path fill="#8c2222" d="M 120.21875 262.46875 C 119.957031 262.46875 119.75 262.363281 119.589844 262.152344 L 105.15625 242.75 C 105.054688 242.578125 105.019531 242.390625 105.058594 242.191406 C 105.101562 241.992188 105.199219 241.832031 105.363281 241.714844 C 105.527344 241.59375 105.710938 241.542969 105.910156 241.566406 C 106.113281 241.585938 106.28125 241.671875 106.414062 241.824219 L 120.847656 261.214844 C 121.042969 261.472656 121.066406 261.746094 120.921875 262.035156 C 120.777344 262.320312 120.542969 262.464844 120.21875 262.464844 Z M 120.21875 262.46875 " fill-opacity="1" fill-rule="nonzero"/></g><path fill="#8c2222" d="M 93.347656 148.316406 C 93.253906 148.316406 93.160156 148.300781 93.070312 148.265625 C 92.863281 148.191406 92.71875 148.054688 92.625 147.855469 C 92.535156 147.660156 92.53125 147.457031 92.605469 147.253906 L 99.8125 128.269531 C 99.894531 128.070312 100.03125 127.925781 100.226562 127.839844 C 100.421875 127.753906 100.621094 127.75 100.820312 127.824219 C 101.019531 127.898438 101.164062 128.035156 101.253906 128.230469 C 101.34375 128.425781 101.351562 128.621094 101.28125 128.824219 L 94.074219 147.808594 C 93.945312 148.144531 93.707031 148.3125 93.347656 148.316406 Z M 93.347656 148.316406 " fill-opacity="1" fill-rule="nonzero"/><path fill="#8c2222" d="M 120.984375 166.8125 C 120.816406 166.8125 120.664062 166.765625 120.527344 166.667969 C 120.390625 166.570312 120.296875 166.441406 120.242188 166.28125 C 120.1875 166.121094 120.183594 165.960938 120.234375 165.800781 C 120.28125 165.640625 120.375 165.507812 120.507812 165.40625 L 131.941406 156.585938 C 132.113281 156.453125 132.308594 156.402344 132.523438 156.429688 C 132.738281 156.457031 132.910156 156.558594 133.042969 156.730469 C 133.175781 156.902344 133.226562 157.09375 133.199219 157.308594 C 133.171875 157.527344 133.070312 157.699219 132.898438 157.832031 L 121.46875 166.648438 C 121.324219 166.757812 121.164062 166.816406 120.984375 166.8125 Z M 120.984375 166.8125 " fill-opacity="1" fill-rule="nonzero"/><path fill="#8c2222" d="M 45.496094 148.316406 C 45.332031 148.316406 45.179688 148.269531 45.042969 148.171875 C 44.90625 148.078125 44.8125 147.949219 44.757812 147.792969 L 34.078125 117.226562 C 34.003906 117.023438 34.015625 116.824219 34.109375 116.628906 C 34.203125 116.433594 34.351562 116.300781 34.558594 116.226562 C 34.761719 116.15625 34.960938 116.167969 35.15625 116.261719 C 35.351562 116.355469 35.484375 116.503906 35.558594 116.710938 L 46.238281 147.273438 C 46.28125 147.394531 46.292969 147.515625 46.273438 147.640625 C 46.257812 147.769531 46.210938 147.882812 46.136719 147.988281 C 46.0625 148.089844 45.96875 148.171875 45.855469 148.230469 C 45.746094 148.289062 45.625 148.316406 45.496094 148.316406 Z M 45.496094 148.316406 " fill-opacity="1" fill-rule="nonzero"/><path fill="#8c2222" d="M 18.046875 166.8125 C 17.867188 166.8125 17.707031 166.757812 17.566406 166.648438 L 6.15625 157.828125 C 5.972656 157.699219 5.863281 157.527344 5.832031 157.304688 C 5.796875 157.082031 5.847656 156.882812 5.984375 156.707031 C 6.121094 156.53125 6.300781 156.429688 6.523438 156.40625 C 6.746094 156.382812 6.941406 156.445312 7.113281 156.589844 L 18.523438 165.40625 C 18.65625 165.507812 18.75 165.640625 18.796875 165.800781 C 18.847656 165.960938 18.84375 166.121094 18.789062 166.28125 C 18.734375 166.441406 18.640625 166.570312 18.503906 166.667969 C 18.367188 166.765625 18.214844 166.8125 18.046875 166.8125 Z M 18.046875 166.8125 " fill-opacity="1" fill-rule="nonzero"/><path fill="#8c2222" d="M 0.851562 221.863281 C 0.6875 221.863281 0.539062 221.816406 0.402344 221.71875 C 0.269531 221.625 0.175781 221.5 0.117188 221.34375 C 0.0625 221.1875 0.0585938 221.03125 0.101562 220.871094 C 0.144531 220.710938 0.230469 220.578125 0.355469 220.476562 L 11.84375 211.058594 C 12.011719 210.921875 12.203125 210.863281 12.417969 210.882812 C 12.636719 210.90625 12.8125 211 12.949219 211.167969 C 13.089844 211.335938 13.144531 211.527344 13.125 211.746094 C 13.101562 211.960938 13.003906 212.140625 12.835938 212.277344 L 1.351562 221.6875 C 1.207031 221.804688 1.039062 221.863281 0.851562 221.863281 Z M 0.851562 221.863281 " fill-opacity="1" fill-rule="nonzero"/><g clip-path="url(#ca64cce235)"><path fill="#8c2222" d="M 46.195312 129.324219 C 46.011719 129.328125 45.851562 129.269531 45.707031 129.15625 C 45.566406 129.042969 45.472656 128.898438 45.433594 128.71875 L 41.882812 113.523438 C 41.828125 113.3125 41.859375 113.113281 41.972656 112.925781 C 42.085938 112.742188 42.25 112.621094 42.460938 112.574219 C 42.675781 112.523438 42.875 112.554688 43.058594 112.671875 C 43.242188 112.789062 43.359375 112.953125 43.40625 113.167969 L 46.957031 128.363281 C 47.007812 128.574219 46.976562 128.773438 46.863281 128.957031 C 46.746094 129.140625 46.585938 129.257812 46.375 129.304688 C 46.316406 129.320312 46.257812 129.324219 46.195312 129.324219 Z M 46.195312 129.324219 " fill-opacity="1" fill-rule="nonzero"/></g><path fill="#8c2222" d="M 126.703125 243.070312 C 126.558594 243.070312 126.425781 243.03125 126.300781 242.957031 L 114.789062 236.082031 C 114.601562 235.96875 114.484375 235.808594 114.429688 235.597656 C 114.378906 235.386719 114.40625 235.191406 114.519531 235.003906 C 114.628906 234.816406 114.789062 234.699219 115 234.644531 C 115.210938 234.59375 115.40625 234.621094 115.59375 234.734375 L 127.105469 241.609375 C 127.257812 241.699219 127.367188 241.824219 127.433594 241.988281 C 127.5 242.152344 127.507812 242.320312 127.460938 242.492188 C 127.414062 242.664062 127.320312 242.804688 127.179688 242.910156 C 127.039062 243.015625 126.878906 243.070312 126.703125 243.070312 Z M 126.703125 243.070312 " fill-opacity="1" fill-rule="nonzero"/><path fill="#ffffff" d="M 86.792969 188.527344 C 86.953125 188.535156 87.105469 188.59375 87.25 188.703125 C 87.394531 188.816406 87.515625 188.96875 87.621094 189.167969 C 87.730469 189.371094 87.808594 189.597656 87.859375 189.855469 C 87.910156 190.113281 87.929688 190.378906 87.921875 190.65625 C 87.910156 190.933594 87.871094 191.195312 87.800781 191.449219 C 87.730469 191.703125 87.632812 191.925781 87.515625 192.113281 C 87.394531 192.304688 87.257812 192.453125 87.105469 192.550781 C 86.957031 192.652344 86.800781 192.699219 86.640625 192.691406 C 86.480469 192.6875 86.328125 192.628906 86.183594 192.519531 C 86.042969 192.40625 85.917969 192.25 85.8125 192.050781 C 85.707031 191.851562 85.628906 191.625 85.574219 191.367188 C 85.523438 191.109375 85.503906 190.84375 85.511719 190.566406 C 85.523438 190.289062 85.5625 190.027344 85.632812 189.773438 C 85.703125 189.519531 85.800781 189.296875 85.921875 189.105469 C 86.039062 188.914062 86.175781 188.769531 86.328125 188.667969 C 86.480469 188.570312 86.632812 188.523438 86.792969 188.527344 Z M 86.792969 188.527344 " fill-opacity="1" fill-rule="nonzero"/><path fill="#ffffff" d="M 73.066406 188.425781 C 73.222656 188.433594 73.375 188.492188 73.519531 188.601562 C 73.664062 188.714844 73.789062 188.871094 73.894531 189.070312 C 74 189.269531 74.078125 189.496094 74.128906 189.753906 C 74.179688 190.011719 74.203125 190.277344 74.191406 190.554688 C 74.179688 190.832031 74.140625 191.09375 74.070312 191.347656 C 74 191.601562 73.90625 191.824219 73.785156 192.015625 C 73.664062 192.207031 73.527344 192.351562 73.378906 192.449219 C 73.226562 192.550781 73.070312 192.597656 72.910156 192.59375 C 72.75 192.585938 72.597656 192.527344 72.457031 192.417969 C 72.3125 192.304688 72.1875 192.148438 72.082031 191.949219 C 71.976562 191.75 71.898438 191.523438 71.847656 191.265625 C 71.792969 191.007812 71.773438 190.742188 71.785156 190.464844 C 71.792969 190.1875 71.835938 189.925781 71.90625 189.671875 C 71.976562 189.417969 72.070312 189.195312 72.191406 189.003906 C 72.3125 188.816406 72.445312 188.667969 72.597656 188.570312 C 72.75 188.46875 72.90625 188.421875 73.066406 188.425781 Z M 73.066406 188.425781 " fill-opacity="1" fill-rule="nonzero"/><g fill="#8c2222" fill-opacity="1"><g transform="translate(140.833942, 220.499986)"><g><path d="M 22.105469 -19.691406 C 20.808594 -25.738281 12.023438 -27.972656 6.984375 -26.101562 C 6.875 -26.0625 6.804688 -26.027344 6.730469 -25.992188 C 5.507812 -26.101562 3.960938 -25.34375 3.78125 -24.046875 C 3.097656 -18.828125 1.945312 -13.429688 1.800781 -8.171875 C 1.65625 -3.347656 5.6875 -0.9375 10.152344 -1.441406 C 14.363281 -1.945312 18.792969 -5.292969 18.71875 -9.863281 C 18.683594 -11.089844 18.359375 -12.132812 17.820312 -12.960938 C 20.664062 -14.328125 22.789062 -16.488281 22.105469 -19.691406 Z M 12.925781 -21.132812 C 13.5 -20.953125 16.847656 -19.800781 16.738281 -18.792969 C 16.703125 -18.253906 14.363281 -17.425781 13.753906 -17.207031 C 12.277344 -16.667969 10.800781 -16.453125 9.253906 -16.414062 C 9.070312 -16.414062 8.855469 -16.414062 8.675781 -16.414062 C 8.496094 -16.414062 8.351562 -16.414062 8.171875 -16.378906 C 8.386719 -17.929688 8.605469 -19.476562 8.785156 -21.023438 C 10.1875 -21.492188 11.484375 -21.527344 12.925781 -21.132812 Z M 12.5625 -8.28125 C 11.699219 -7.308594 8.566406 -5.832031 7.378906 -7.054688 C 6.910156 -7.523438 7.234375 -8.746094 7.308594 -9.394531 C 7.34375 -10.042969 7.453125 -10.65625 7.523438 -11.269531 C 7.847656 -11.125 8.242188 -11.050781 8.675781 -11.015625 C 8.855469 -11.015625 9.035156 -11.015625 9.214844 -11.015625 C 11.160156 -11.015625 14.761719 -10.691406 12.5625 -8.28125 Z M 12.5625 -8.28125 "/></g></g></g><g fill="#8c2222" fill-opacity="1"><g transform="translate(164.881994, 220.499986)"><g><path d="M 20.449219 -3.421875 C 18.46875 -6.121094 16.199219 -8.53125 13.609375 -10.621094 C 15.550781 -11.988281 17.171875 -13.894531 17.855469 -15.949219 C 19.222656 -20.050781 15.550781 -24.085938 11.375 -23.902344 C 6.949219 -23.6875 4.03125 -19.585938 3.238281 -15.589844 C 2.195312 -10.402344 2.195312 -4.894531 1.800781 0.359375 C 1.511719 3.816406 6.910156 3.816406 7.199219 0.359375 C 7.414062 -2.484375 7.632812 -5.328125 7.882812 -8.171875 C 10.945312 -6.15625 13.609375 -3.671875 15.804688 -0.683594 C 17.820312 2.089844 22.535156 -0.613281 20.449219 -3.421875 Z M 12.742188 -17.820312 C 12.886719 -17.242188 11.269531 -15.804688 10.835938 -15.40625 C 10.078125 -14.722656 9.359375 -14.21875 8.425781 -14.113281 C 8.53125 -14.722656 8.675781 -15.335938 8.929688 -15.910156 C 9.179688 -16.597656 12.238281 -20.269531 12.742188 -17.820312 Z M 12.742188 -17.820312 "/></g></g></g><g fill="#8c2222" fill-opacity="1"><g transform="translate(187.67004, 220.499986)"><g><path d="M 18.613281 -15.769531 C 18.503906 -18.898438 18.433594 -27.109375 13.105469 -24.839844 C 9.648438 -23.363281 7.019531 -18.863281 5.542969 -15.625 C 3.601562 -11.230469 2.664062 -6.589844 1.835938 -1.90625 C 1.222656 1.511719 6.40625 2.953125 7.019531 -0.46875 C 7.34375 -2.269531 7.667969 -4.105469 8.0625 -5.902344 L 13.464844 -5.6875 C 13.535156 -4.246094 13.570312 -2.808594 13.609375 -1.402344 C 13.679688 2.089844 19.078125 2.089844 18.972656 -1.402344 C 18.863281 -6.191406 18.792969 -10.980469 18.613281 -15.769531 Z M 9.792969 -11.84375 C 10.402344 -13.429688 11.195312 -15.011719 12.132812 -16.414062 C 12.457031 -16.921875 12.816406 -17.386719 13.175781 -17.820312 C 13.210938 -17.101562 13.175781 -16.378906 13.210938 -15.769531 C 13.285156 -14.21875 13.320312 -12.671875 13.355469 -11.089844 C 12.097656 -11.125 10.835938 -11.195312 9.574219 -11.230469 C 9.648438 -11.449219 9.71875 -11.628906 9.792969 -11.84375 Z M 9.792969 -11.84375 "/></g></g></g><g fill="#8c2222" fill-opacity="1"><g transform="translate(208.478076, 220.499986)"><g><path d="M 3.421875 -22.175781 C 2.699219 -15.695312 2.160156 -9.179688 1.800781 -2.664062 C 1.585938 0.828125 6.984375 0.792969 7.199219 -2.664062 C 7.558594 -9.179688 8.101562 -15.695312 8.820312 -22.175781 C 9.179688 -25.632812 3.78125 -25.632812 3.421875 -22.175781 Z M 3.421875 -22.175781 "/></g></g></g><g fill="#8c2222" fill-opacity="1"><g transform="translate(219.134092, 220.499986)"><g><path d="M 15.839844 -21.851562 C 15.265625 -17.964844 14.578125 -14.074219 13.859375 -10.222656 L 10.65625 -17.566406 C 9.71875 -19.765625 6.300781 -18.972656 5.722656 -16.921875 C 4.210938 -11.304688 2.914062 -5.617188 1.835938 0.0703125 C 1.1875 3.492188 6.40625 4.933594 7.054688 1.511719 C 7.632812 -1.621094 8.316406 -4.753906 9.035156 -7.882812 C 10.1875 -5.257812 11.304688 -2.664062 12.457031 -0.0351562 C 13.390625 2.125 16.921875 1.476562 17.386719 -0.683594 C 18.828125 -7.199219 20.050781 -13.789062 21.023438 -20.410156 C 21.527344 -23.796875 16.308594 -25.273438 15.839844 -21.851562 Z M 15.839844 -21.851562 "/></g></g></g><g fill="#8c2222" fill-opacity="1"><g transform="translate(242.030137, 220.499986)"><g/></g></g><g fill="#8c2222" fill-opacity="1"><g transform="translate(252.974155, 220.499986)"><g><path d="M 13.390625 -15.589844 C 12.457031 -16.234375 10.296875 -16.8125 9.863281 -17.929688 C 9.214844 -19.691406 11.628906 -20.953125 12.851562 -21.527344 C 15.984375 -23.003906 13.246094 -27.648438 10.117188 -26.171875 C 5.292969 -23.902344 1.945312 -17.496094 6.769531 -13.320312 C 8.460938 -11.84375 11.808594 -11.269531 12.167969 -8.605469 C 12.3125 -7.488281 11.773438 -6.445312 10.765625 -6.011719 C 10.078125 -5.722656 7.558594 -5.328125 6.984375 -6.121094 C 4.894531 -8.855469 0.214844 -6.15625 2.304688 -3.382812 C 6.550781 2.230469 16.703125 -0.144531 17.496094 -7.34375 C 17.855469 -10.65625 16.128906 -13.789062 13.390625 -15.589844 Z M 13.390625 -15.589844 "/></g></g></g><g fill="#8c2222" fill-opacity="1"><g transform="translate(272.342192, 220.499986)"><g><path d="M 16.378906 -24.769531 C 12.382812 -25.273438 8.386719 -25.34375 4.355469 -24.949219 C 0.9375 -24.589844 0.898438 -19.1875 4.355469 -19.546875 C 5.4375 -19.65625 6.480469 -19.726562 7.523438 -19.765625 C 7.199219 -14.507812 6.910156 -9.214844 6.589844 -3.960938 C 6.371094 -0.503906 11.773438 -0.503906 11.988281 -3.960938 C 12.3125 -9.214844 12.601562 -14.4375 12.925781 -19.691406 C 14.074219 -19.621094 15.226562 -19.511719 16.378906 -19.367188 C 19.835938 -18.9375 19.800781 -24.335938 16.378906 -24.769531 Z M 16.378906 -24.769531 "/></g></g></g><g fill="#8c2222" fill-opacity="1"><g transform="translate(293.114236, 220.499986)"><g><path d="M 20.015625 -22.894531 C 17.0625 -27.757812 9.359375 -28.367188 5.507812 -24.445312 C 1.726562 -21.203125 1.1875 -13.679688 2.269531 -9.46875 C 3.023438 -6.589844 4.933594 -3.5625 7.882812 -2.628906 C 10.945312 -1.621094 14.328125 -2.734375 16.738281 -4.714844 C 19.1875 -6.769531 20.699219 -9.757812 21.203125 -12.886719 C 21.671875 -15.984375 21.707031 -20.125 20.015625 -22.894531 Z M 13.464844 -8.890625 C 13.355469 -8.820312 13.285156 -8.746094 13.175781 -8.640625 C 12.023438 -7.667969 10.1875 -7.273438 8.964844 -8.207031 C 8.171875 -8.785156 7.8125 -9.757812 7.558594 -10.691406 C 7.199219 -12.238281 7.128906 -13.859375 7.308594 -15.445312 C 7.488281 -16.882812 7.847656 -18.71875 8.675781 -19.90625 C 9.433594 -20.953125 10.691406 -21.601562 11.988281 -21.636719 C 14.21875 -21.671875 15.660156 -20.160156 15.910156 -18.070312 C 16.34375 -14.902344 15.875 -11.195312 13.464844 -8.890625 Z M 13.464844 -8.890625 "/></g></g></g><g fill="#8c2222" fill-opacity="1"><g transform="translate(316.442283, 220.499986)"><g><path d="M 20.449219 -3.421875 C 18.46875 -6.121094 16.199219 -8.53125 13.609375 -10.621094 C 15.550781 -11.988281 17.171875 -13.894531 17.855469 -15.949219 C 19.222656 -20.050781 15.550781 -24.085938 11.375 -23.902344 C 6.949219 -23.6875 4.03125 -19.585938 3.238281 -15.589844 C 2.195312 -10.402344 2.195312 -4.894531 1.800781 0.359375 C 1.511719 3.816406 6.910156 3.816406 7.199219 0.359375 C 7.414062 -2.484375 7.632812 -5.328125 7.882812 -8.171875 C 10.945312 -6.15625 13.609375 -3.671875 15.804688 -0.683594 C 17.820312 2.089844 22.535156 -0.613281 20.449219 -3.421875 Z M 12.742188 -17.820312 C 12.886719 -17.242188 11.269531 -15.804688 10.835938 -15.40625 C 10.078125 -14.722656 9.359375 -14.21875 8.425781 -14.113281 C 8.53125 -14.722656 8.675781 -15.335938 8.929688 -15.910156 C 9.179688 -16.597656 12.238281 -20.269531 12.742188 -17.820312 Z M 12.742188 -17.820312 "/></g></g></g><g fill="#8c2222" fill-opacity="1"><g transform="translate(339.23033, 220.499986)"><g><path d="M 26.855469 -12.851562 C 26.820312 -15.984375 26.425781 -19.800781 23.902344 -21.996094 C 21.132812 -24.445312 18.433594 -23.148438 16.34375 -20.664062 C 16.273438 -20.808594 16.164062 -20.953125 16.09375 -21.058594 C 14.148438 -24.046875 10.042969 -23.867188 7.667969 -21.527344 C 5.113281 -19.042969 3.816406 -14.902344 3.058594 -11.519531 C 2.269531 -7.8125 2.015625 -3.996094 1.800781 -0.253906 C 1.585938 3.238281 6.984375 3.203125 7.199219 -0.253906 C 7.453125 -4.789062 7.738281 -9.394531 9.289062 -13.679688 C 9.648438 -14.652344 10.042969 -15.589844 10.585938 -16.453125 C 10.765625 -16.738281 11.230469 -17.710938 11.664062 -17.820312 C 11.664062 -17.855469 11.699219 -17.855469 11.699219 -17.855469 C 11.699219 -17.820312 11.699219 -17.746094 11.773438 -17.675781 C 12.203125 -17.101562 12.058594 -15.40625 12.097656 -14.722656 C 12.132812 -13.429688 12.058594 -12.132812 11.914062 -10.800781 C 11.628906 -7.8125 16.738281 -7.09375 17.242188 -10.117188 C 17.53125 -12.023438 18.144531 -13.824219 19.1875 -15.480469 C 19.546875 -16.019531 20.339844 -16.667969 20.808594 -17.242188 C 20.878906 -16.667969 21.167969 -16.09375 21.238281 -15.550781 C 22.105469 -10.765625 21.167969 -5.472656 20.699219 -0.71875 C 20.339844 2.734375 25.738281 2.734375 26.101562 -0.71875 C 26.496094 -4.714844 26.929688 -8.785156 26.855469 -12.851562 Z M 26.855469 -12.851562 "/></g></g></g></svg>