<svg xmlns="http://www.w3.org/2000/svg" xmlns:xlink="http://www.w3.org/1999/xlink" width="500" zoomAndPan="magnify" viewBox="0 0 375 374.999991" height="500" preserveAspectRatio="xMidYMid meet" version="1.0"><defs><g/><clipPath id="b4d170f90b"><path d="M 54.75 119.21875 L 194.25 119.21875 L 194.25 255.71875 L 54.75 255.71875 Z M 54.75 119.21875 " clip-rule="nonzero"/></clipPath></defs><rect x="-37.5" width="450" fill="#ffffff" y="-37.499999" height="449.999989" fill-opacity="1"/><rect x="-37.5" width="450" fill="#ffffff" y="-37.499999" height="449.999989" fill-opacity="1"/><rect x="-37.5" width="450" fill="#000000" y="-37.499999" height="449.999989" fill-opacity="1"/><g clip-path="url(#b4d170f90b)"><path fill="#737373" d="M 67.292969 157.011719 C 67.257812 156.46875 67.222656 155.921875 67.222656 155.378906 C 67.222656 143.4375 76.925781 133.746094 88.890625 133.746094 C 89.507812 133.746094 90.128906 133.78125 90.746094 133.835938 C 95.734375 124.820312 105.21875 119.21875 115.5625 119.21875 C 120.988281 119.21875 126.25 120.746094 130.820312 123.65625 L 131.203125 123.90625 C 134.042969 122.671875 137.097656 122.050781 140.214844 122.050781 C 150.917969 122.050781 160.042969 129.488281 162.386719 139.628906 C 163.097656 139.574219 163.828125 139.539062 164.535156 139.539062 C 176.351562 139.539062 186.167969 148.554688 187.203125 160.226562 L 187.585938 160.550781 C 191.808594 164.242188 194.25 169.550781 194.25 175.183594 C 194.25 185.875 185.511719 194.617188 174.785156 194.617188 L 98.535156 194.617188 L 96.207031 199.671875 L 111.082031 200.160156 L 58.902344 255.707031 L 76.089844 216.328125 L 64.894531 215.582031 L 73.902344 194.625 C 63.328125 194.460938 54.75 185.789062 54.75 175.191406 C 54.75 167.066406 59.832031 159.867188 67.292969 157.011719 Z M 67.292969 157.011719 " fill-opacity="1" fill-rule="evenodd"/></g><path fill="#ffbd59" d="M 184.253906 164.355469 C 187.273438 166.992188 189.203125 170.882812 189.203125 175.191406 C 189.203125 183.097656 182.703125 189.585938 174.785156 189.585938 L 95.261719 189.585938 L 88.433594 204.457031 L 99.757812 204.839844 L 75.214844 230.980469 L 83.589844 211.785156 L 72.359375 211.023438 L 81.734375 189.589844 L 74.214844 189.589844 C 66.292969 189.589844 59.796875 183.097656 59.796875 175.191406 C 59.796875 168.519531 64.382812 162.886719 70.574219 161.25 C 73.101562 162.523438 75.816406 164.214844 78.257812 166.394531 C 78.347656 166.503906 78.4375 166.597656 78.546875 166.667969 C 80.566406 168.523438 82.367188 170.722656 83.679688 173.339844 C 83.296875 173.886719 83.0625 174.542969 83.0625 175.269531 C 83.0625 177.085938 84.535156 178.558594 86.339844 178.558594 C 88.160156 178.558594 89.632812 177.085938 89.632812 175.269531 C 89.632812 173.578125 88.34375 172.179688 86.683594 171.996094 C 85.574219 169.777344 84.171875 167.8125 82.589844 166.085938 C 93.3125 163.488281 101.230469 170.539062 107.824219 176.394531 C 110.320312 178.628906 112.648438 180.703125 114.980469 182.136719 C 122.152344 186.574219 130.566406 182.863281 134.464844 180.628906 C 134.882812 180.828125 135.371094 180.9375 135.882812 180.9375 C 137.683594 180.9375 139.160156 179.484375 139.160156 177.664062 C 139.160156 175.84375 137.683594 174.375 135.882812 174.375 C 134.0625 174.375 132.589844 175.847656 132.589844 177.664062 C 132.589844 177.753906 132.589844 177.828125 132.609375 177.917969 C 129.21875 179.84375 122.335938 182.824219 116.695312 179.335938 C 114.65625 178.082031 112.417969 176.097656 110.015625 173.9375 C 102.441406 167.210938 93.246094 159.011719 79.863281 163.464844 C 77.535156 161.464844 75.003906 159.882812 72.617188 158.648438 C 72.398438 157.59375 72.292969 156.503906 72.292969 155.375 C 72.292969 146.234375 79.71875 138.796875 88.894531 138.796875 C 90.421875 138.796875 91.898438 139 93.300781 139.394531 C 94.902344 141.722656 96.503906 144.46875 97.796875 147.542969 C 97.832031 147.671875 97.890625 147.816406 97.960938 147.921875 C 99.21875 151.011719 100.167969 154.414062 100.476562 158.03125 C 99.566406 158.613281 98.984375 159.628906 98.984375 160.773438 C 98.984375 162.59375 100.457031 164.0625 102.261719 164.0625 C 104.082031 164.0625 105.554688 162.589844 105.554688 160.773438 C 105.554688 159.5 104.828125 158.390625 103.753906 157.847656 C 103.5 154.808594 102.84375 151.921875 101.933594 149.230469 C 106.171875 150.320312 114.164062 153.902344 116.097656 165.375 C 115.3125 165.972656 114.820312 166.898438 114.820312 167.972656 C 114.820312 169.773438 116.296875 171.246094 118.101562 171.246094 C 119.921875 171.246094 121.394531 169.773438 121.394531 167.972656 C 121.394531 166.589844 120.558594 165.410156 119.355469 164.917969 C 116.753906 149.195312 104.1875 146.140625 100.511719 145.578125 C 98.945312 142.03125 97.015625 138.925781 95.140625 136.34375 C 99.09375 129.144531 106.777344 124.253906 115.570312 124.253906 C 120.195312 124.253906 124.492188 125.597656 128.097656 127.90625 C 128.933594 129.671875 129.753906 131.996094 129.992188 134.726562 C 126.640625 134.414062 119.832031 134.542969 114.222656 139.46875 C 113.953125 139.394531 113.640625 139.339844 113.332031 139.339844 C 111.53125 139.339844 110.054688 140.8125 110.054688 142.628906 C 110.054688 144.445312 111.53125 145.902344 113.332031 145.902344 C 115.152344 145.902344 116.625 144.449219 116.625 142.628906 C 116.625 142.359375 116.589844 142.085938 116.535156 141.832031 C 121.414062 137.613281 127.386719 137.722656 129.992188 138.015625 C 129.953125 138.578125 129.863281 139.144531 129.753906 139.722656 C 128.261719 140.03125 127.132812 141.359375 127.132812 142.941406 C 127.132812 144.757812 128.605469 146.230469 130.425781 146.230469 C 132.246094 146.230469 133.722656 144.757812 133.722656 142.941406 C 133.722656 142.121094 133.410156 141.359375 132.902344 140.792969 C 133.191406 139.378906 133.339844 138.015625 133.355469 136.722656 C 133.355469 136.667969 133.355469 136.613281 133.355469 136.558594 C 133.375 133.742188 132.828125 131.195312 132.082031 129.066406 C 134.519531 127.8125 137.285156 127.101562 140.21875 127.101562 C 149.503906 127.101562 157.132812 134.25 157.859375 143.355469 C 154.746094 146.445312 151.960938 151.226562 152.34375 158.207031 C 151.507812 158.808594 150.960938 159.789062 150.960938 160.898438 C 150.960938 162.699219 152.4375 164.171875 154.253906 164.171875 C 156.058594 164.171875 157.53125 162.699219 157.53125 160.898438 C 157.53125 159.574219 156.75 158.429688 155.621094 157.917969 C 155.332031 151.613281 158.117188 147.484375 160.941406 144.957031 C 162.105469 144.703125 163.304688 144.574219 164.542969 144.574219 C 173.972656 144.574219 181.675781 151.917969 182.222656 161.191406 C 179.164062 161.480469 176.433594 162.046875 173.902344 162.789062 C 173.28125 160.136719 171.445312 155.464844 166.109375 152.046875 C 166.109375 150.226562 164.632812 148.757812 162.816406 148.757812 C 160.992188 148.757812 159.535156 150.230469 159.535156 152.046875 C 159.535156 153.847656 160.992188 155.320312 162.816406 155.320312 C 163.414062 155.320312 163.980469 155.15625 164.453125 154.882812 C 169.039062 157.882812 170.386719 161.863281 170.789062 163.808594 C 167.804688 164.898438 165.128906 166.171875 162.59375 167.371094 C 160.863281 168.191406 159.207031 168.96875 157.640625 169.609375 C 153.21875 171.425781 149.136719 172.515625 145.40625 171.808594 C 145.445312 168.210938 144.933594 158.484375 138.652344 152.59375 C 138.964844 150.9375 140.3125 146.957031 146.171875 143.683594 C 146.683594 144.007812 147.28125 144.210938 147.957031 144.210938 C 149.761719 144.210938 151.234375 142.738281 151.234375 140.921875 C 151.234375 139.105469 149.761719 137.628906 147.957031 137.628906 C 146.191406 137.628906 144.753906 139.027344 144.664062 140.757812 C 138.964844 143.917969 136.726562 147.882812 135.851562 150.5 C 132.976562 148.792969 129.242188 147.773438 124.417969 147.917969 C 123.820312 147.027344 122.816406 146.445312 121.671875 146.445312 C 119.847656 146.445312 118.375 147.917969 118.375 149.734375 C 118.375 151.535156 119.851562 153.007812 121.671875 153.007812 C 122.945312 153.007812 124.054688 152.28125 124.601562 151.207031 C 140.058594 150.863281 141.972656 164.96875 142.117188 170.640625 C 139.222656 169.09375 136.4375 166.152344 133.707031 161.226562 C 134.035156 160.714844 134.21875 160.117188 134.21875 159.480469 C 134.21875 157.664062 132.742188 156.191406 130.921875 156.191406 C 129.121094 156.191406 127.644531 157.664062 127.644531 159.480469 C 127.644531 161.246094 129.042969 162.699219 130.8125 162.753906 C 134.617188 169.679688 138.710938 173.226562 143.117188 174.609375 C 143.191406 174.644531 143.261719 174.664062 143.355469 174.679688 C 143.445312 174.714844 143.535156 174.734375 143.628906 174.753906 C 148.472656 176.097656 153.496094 174.863281 158.902344 172.644531 C 160.613281 171.953125 162.269531 171.152344 164 170.335938 C 169.488281 167.738281 175.660156 164.808594 184.253906 164.355469 Z M 184.253906 164.355469 " fill-opacity="1" fill-rule="evenodd"/><g fill="#ffffff" fill-opacity="1"><g transform="translate(94.250118, 249.769015)"><g><path d="M 9.085938 0 C 14.320312 0 15.628906 -2.722656 15.628906 -5.222656 C 15.628906 -7.058594 14.75 -8.703125 12.484375 -9.46875 C 14.019531 -10.296875 14.929688 -11.773438 14.929688 -13.695312 C 14.929688 -16.3125 13.429688 -18.4375 8.871094 -18.4375 L 2.316406 -18.4375 C 1.992188 -18.4375 1.824219 -18.269531 1.824219 -17.945312 L 1.824219 -0.492188 C 1.824219 -0.167969 1.992188 0 2.316406 0 Z M 6.011719 -14.8125 L 8.796875 -14.8125 C 10.65625 -14.8125 11.1875 -14.042969 11.1875 -12.960938 C 11.1875 -11.847656 10.65625 -11.03125 8.988281 -11.03125 L 6.011719 -11.03125 Z M 6.011719 -7.8125 L 9.0625 -7.8125 C 10.828125 -7.8125 11.425781 -6.9375 11.425781 -5.738281 C 11.425781 -4.597656 10.933594 -3.625 8.988281 -3.625 L 6.011719 -3.625 Z M 6.011719 -7.8125 "/></g></g></g><g fill="#ffffff" fill-opacity="1"><g transform="translate(115.968598, 249.769015)"><g><path d="M 13.023438 -6.792969 C 14.929688 -7.742188 15.976562 -9.6875 15.976562 -12.398438 C 15.976562 -15.808594 14.332031 -18.4375 9.195312 -18.4375 L 2.316406 -18.4375 C 1.992188 -18.4375 1.824219 -18.269531 1.824219 -17.945312 L 1.824219 -0.492188 C 1.824219 -0.167969 1.992188 0 2.316406 0 L 5.546875 0 C 5.855469 0 6.039062 -0.167969 6.039062 -0.492188 L 6.039062 -6.144531 L 8.847656 -6.144531 L 11.761719 -0.371094 C 11.882812 -0.121094 12.050781 0 12.328125 0 L 16 0 C 16.359375 0 16.515625 -0.238281 16.347656 -0.589844 Z M 8.535156 -14.8125 C 9.675781 -14.8125 11.796875 -14.800781 11.796875 -12.363281 C 11.796875 -9.78125 9.445312 -9.769531 8.535156 -9.769531 L 6.039062 -9.769531 L 6.039062 -14.8125 Z M 8.535156 -14.8125 "/></g></g></g><g fill="#ffffff" fill-opacity="1"><g transform="translate(138.395137, 249.769015)"><g><path d="M 9.816406 -18.4375 C 9.480469 -19.132812 8.929688 -19.132812 8.605469 -18.4375 L 0.382812 -0.589844 C 0.226562 -0.238281 0.382812 0 0.746094 0 L 4.285156 0 C 4.5625 0 4.753906 -0.132812 4.847656 -0.382812 L 5.664062 -2.425781 L 12.746094 -2.425781 L 13.5625 -0.382812 C 13.660156 -0.132812 13.851562 0 14.125 0 L 17.667969 0 C 18.039062 0 18.183594 -0.238281 18.039062 -0.589844 Z M 9.207031 -11.332031 L 11.472656 -5.652344 L 6.949219 -5.652344 Z M 9.207031 -11.332031 "/></g></g></g><g fill="#ffffff" fill-opacity="1"><g transform="translate(161.745753, 249.769015)"><g><path d="M 5.519531 0 C 5.84375 0 6.011719 -0.167969 6.011719 -0.492188 L 6.011719 -17.945312 C 6.011719 -18.269531 5.84375 -18.4375 5.519531 -18.4375 L 2.316406 -18.4375 C 1.992188 -18.4375 1.824219 -18.269531 1.824219 -17.945312 L 1.824219 -0.492188 C 1.824219 -0.167969 1.992188 0 2.316406 0 Z M 5.519531 0 "/></g></g></g><g fill="#ffffff" fill-opacity="1"><g transform="translate(174.499492, 249.769015)"><g><path d="M 5.425781 0 C 5.738281 0 5.90625 -0.167969 5.90625 -0.492188 L 5.90625 -10.527344 L 16.226562 0 C 16.933594 0.707031 17.535156 0.421875 17.535156 -0.433594 L 17.535156 -17.945312 C 17.535156 -18.269531 17.355469 -18.4375 17.042969 -18.4375 L 13.957031 -18.4375 C 13.636719 -18.4375 13.464844 -18.269531 13.464844 -17.945312 L 13.464844 -8.148438 L 3.046875 -18.53125 C 2.386719 -19.15625 1.847656 -18.867188 1.847656 -18.015625 L 1.847656 -0.492188 C 1.847656 -0.167969 2.015625 0 2.339844 0 Z M 5.425781 0 "/></g></g></g><g fill="#ffffff" fill-opacity="1"><g transform="translate(198.798182, 249.769015)"><g/></g></g><g fill="#ffffff" fill-opacity="1"><g transform="translate(211.347903, 249.769015)"><g><path d="M 7.371094 0.46875 C 10.742188 0.46875 14.152344 -0.960938 14.152344 -4.957031 C 14.152344 -8.292969 11.679688 -9.746094 9.433594 -10.851562 C 7.285156 -11.882812 5.546875 -12.554688 5.546875 -13.898438 C 5.546875 -14.953125 6.515625 -15.328125 7.777344 -15.328125 C 8.917969 -15.328125 10.308594 -15.039062 11.546875 -14.558594 C 11.847656 -14.449219 12.0625 -14.570312 12.171875 -14.859375 L 12.949219 -17.367188 C 13.058594 -17.667969 12.960938 -17.882812 12.652344 -17.992188 C 10.996094 -18.554688 9.097656 -18.902344 7.65625 -18.902344 C 4.382812 -18.902344 1.285156 -17.402344 1.285156 -13.597656 C 1.285156 -10.695312 3.253906 -9.253906 5.4375 -8.101562 C 7.65625 -6.9375 9.878906 -6.179688 9.878906 -4.765625 C 9.878906 -3.636719 8.859375 -3.121094 7.34375 -3.121094 C 6.050781 -3.121094 4.367188 -3.46875 2.699219 -4.128906 C 2.402344 -4.238281 2.171875 -4.164062 2.0625 -3.851562 L 1.164062 -1.210938 C 1.042969 -0.898438 1.152344 -0.695312 1.464844 -0.574219 C 3.722656 0.179688 5.582031 0.46875 7.371094 0.46875 Z M 7.371094 0.46875 "/></g></g></g><g fill="#ffffff" fill-opacity="1"><g transform="translate(231.410245, 249.769015)"><g><path d="M 8.496094 0 C 8.808594 0 8.988281 -0.167969 8.988281 -0.492188 L 8.988281 -14.8125 L 12.832031 -14.8125 C 13.15625 -14.8125 13.324219 -14.992188 13.324219 -15.304688 L 13.324219 -17.945312 C 13.324219 -18.269531 13.15625 -18.4375 12.832031 -18.4375 L 0.925781 -18.4375 C 0.613281 -18.4375 0.433594 -18.269531 0.433594 -17.945312 L 0.433594 -15.304688 C 0.433594 -14.992188 0.613281 -14.8125 0.925781 -14.8125 L 4.765625 -14.8125 L 4.765625 -0.492188 C 4.765625 -0.167969 4.945312 0 5.257812 0 Z M 8.496094 0 "/></g></g></g><g fill="#ffffff" fill-opacity="1"><g transform="translate(250.104482, 249.769015)"><g><path d="M 10.945312 0.46875 C 16.78125 0.46875 20.847656 -3.371094 20.847656 -9.21875 C 20.847656 -15.0625 16.78125 -18.902344 10.945312 -18.902344 C 5.125 -18.902344 1.066406 -15.0625 1.066406 -9.21875 C 1.066406 -3.371094 5.125 0.46875 10.945312 0.46875 Z M 10.945312 -3.359375 C 7.632812 -3.359375 5.269531 -5.652344 5.269531 -9.21875 C 5.269531 -12.792969 7.621094 -15.074219 10.945312 -15.074219 C 14.269531 -15.074219 16.648438 -12.792969 16.648438 -9.21875 C 16.648438 -5.640625 14.269531 -3.359375 10.945312 -3.359375 Z M 10.945312 -3.359375 "/></g></g></g><g fill="#ffffff" fill-opacity="1"><g transform="translate(276.959393, 249.769015)"><g><path d="M 13.023438 -6.792969 C 14.929688 -7.742188 15.976562 -9.6875 15.976562 -12.398438 C 15.976562 -15.808594 14.332031 -18.4375 9.195312 -18.4375 L 2.316406 -18.4375 C 1.992188 -18.4375 1.824219 -18.269531 1.824219 -17.945312 L 1.824219 -0.492188 C 1.824219 -0.167969 1.992188 0 2.316406 0 L 5.546875 0 C 5.855469 0 6.039062 -0.167969 6.039062 -0.492188 L 6.039062 -6.144531 L 8.847656 -6.144531 L 11.761719 -0.371094 C 11.882812 -0.121094 12.050781 0 12.328125 0 L 16 0 C 16.359375 0 16.515625 -0.238281 16.347656 -0.589844 Z M 8.535156 -14.8125 C 9.675781 -14.8125 11.796875 -14.800781 11.796875 -12.363281 C 11.796875 -9.78125 9.445312 -9.769531 8.535156 -9.769531 L 6.039062 -9.769531 L 6.039062 -14.8125 Z M 8.535156 -14.8125 "/></g></g></g><g fill="#ffffff" fill-opacity="1"><g transform="translate(299.385938, 249.769015)"><g><path d="M 5.460938 0 C 5.773438 0 5.953125 -0.167969 5.953125 -0.492188 L 5.953125 -8.808594 L 10.609375 -3.046875 C 10.828125 -2.773438 11.078125 -2.773438 11.292969 -3.046875 L 15.988281 -8.847656 L 15.988281 -0.492188 C 15.988281 -0.167969 16.167969 0 16.480469 0 L 19.601562 0 C 19.925781 0 20.09375 -0.167969 20.09375 -0.492188 L 20.09375 -18.027344 C 20.09375 -18.941406 19.457031 -19.15625 18.890625 -18.4375 L 10.945312 -8.246094 L 3.046875 -18.4375 C 2.472656 -19.179688 1.847656 -18.941406 1.847656 -18.027344 L 1.847656 -0.492188 C 1.847656 -0.167969 2.015625 0 2.339844 0 Z M 5.460938 0 "/></g></g></g></svg>